<svg width="22" height="23" viewBox="0 0 22 23" fill="none" xmlns="http://www.w3.org/2000/svg">
<path d="M16.2313 2.60999H5.4238C3.92876 2.60999 2.72192 3.80782 2.72192 5.28484V15.1107C2.72192 16.5877 3.92876 17.7855 5.4238 17.7855H6.10827C6.82877 17.7855 7.51325 18.0647 8.0176 18.5691L9.55767 20.0911C10.2602 20.7846 11.4039 20.7846 12.1064 20.0911L13.6465 18.5691C14.1509 18.0647 14.8443 17.7855 15.5558 17.7855H16.2313C17.7263 17.7855 18.9332 16.5877 18.9332 15.1107V5.28484C18.9332 3.80782 17.7263 2.60999 16.2313 2.60999ZM9.36854 12.5259C9.73779 12.5259 10.044 12.8321 10.044 13.2013C10.044 13.5706 9.73779 13.8768 9.36854 13.8768H6.95486C6.55859 13.8768 6.18933 13.6877 5.95517 13.3634C5.73001 13.0572 5.67597 12.679 5.78405 12.3187C6.09927 11.3551 6.87381 10.8327 7.55828 10.3644C8.27878 9.87803 8.68406 9.57182 8.68406 9.04945C8.68406 8.58113 8.3058 8.20287 7.83747 8.20287C7.36915 8.20287 6.99989 8.59014 6.99989 9.05846C6.99989 9.42772 6.69368 9.73393 6.32442 9.73393C5.95517 9.73393 5.64896 9.42772 5.64896 9.05846C5.64896 7.85162 6.63064 6.86094 7.84648 6.86094C9.06232 6.86094 10.044 7.84262 10.044 9.05846C10.044 10.3283 9.08934 10.9768 8.32381 11.4992C7.84648 11.8234 7.39617 12.1296 7.17101 12.5349H9.36854V12.5259ZM15.3307 12.5889H15.1415V13.2103C15.1415 13.5796 14.8353 13.8858 14.4661 13.8858C14.0968 13.8858 13.7906 13.5796 13.7906 13.2103V12.5889H12.0254C12.0254 12.5889 12.0254 12.5889 12.0164 12.5889C11.5751 12.5889 11.1698 12.3547 10.9446 11.9765C10.7195 11.5892 10.7195 11.1119 10.9446 10.7336C11.5571 9.67989 12.2685 8.48206 12.917 7.43734C13.2052 6.97802 13.7546 6.77087 14.2679 6.91497C14.7813 7.06808 15.1415 7.5364 15.1325 8.07678V11.247H15.3307C15.6999 11.247 16.0061 11.5532 16.0061 11.9224C16.0061 12.2917 15.6999 12.5889 15.3307 12.5889Z" fill="#FCC101"/>
<path d="M13.7906 11.2379V8.59009C13.2592 9.45469 12.7098 10.3823 12.2145 11.2289H13.7906V11.2379Z" fill="#FCC101"/>
</svg>
