<svg width="24" height="24" viewBox="0 0 24 24" fill="none" xmlns="http://www.w3.org/2000/svg">
<g clip-path="url(#clip0_40_123)">
<path d="M20.8426 17.1454C20.5099 17.914 20.1161 18.6215 19.6598 19.272C19.0378 20.1588 18.5286 20.7726 18.1361 21.1134C17.5277 21.6729 16.8759 21.9595 16.1779 21.9758C15.6768 21.9758 15.0725 21.8332 14.3691 21.5439C13.6633 21.256 13.0148 21.1134 12.4217 21.1134C11.7998 21.1134 11.1327 21.256 10.4193 21.5439C9.70469 21.8332 9.12904 21.9839 8.68892 21.9988C8.01957 22.0274 7.35239 21.7327 6.68644 21.1134C6.26139 20.7427 5.72974 20.1072 5.09285 19.2068C4.40951 18.2454 3.84772 17.1305 3.4076 15.8594C2.93624 14.4865 2.69995 13.157 2.69995 11.8699C2.69995 10.3956 3.01853 9.12394 3.65665 8.05833C4.15815 7.20239 4.82533 6.5272 5.66035 6.03154C6.49537 5.53588 7.39762 5.28329 8.36925 5.26713C8.9009 5.26713 9.59809 5.43158 10.4645 5.75478C11.3284 6.07907 11.8832 6.24352 12.1264 6.24352C12.3082 6.24352 12.9245 6.05123 13.9692 5.66787C14.9571 5.31235 15.7909 5.16515 16.474 5.22313C18.3249 5.37251 19.7155 6.10216 20.6402 7.41668C18.9849 8.41969 18.166 9.82452 18.1823 11.6267C18.1972 13.0304 18.7065 14.1986 19.7073 15.1261C20.1609 15.5566 20.6674 15.8893 21.231 16.1256C21.1087 16.48 20.9797 16.8195 20.8426 17.1454V17.1454ZM16.5975 0.440858C16.5975 1.54111 16.1956 2.56841 15.3944 3.51927C14.4275 4.64966 13.258 5.30285 11.9898 5.19978C11.9736 5.06778 11.9642 4.92886 11.9642 4.78287C11.9642 3.72663 12.424 2.59625 13.2406 1.67201C13.6483 1.20404 14.1667 0.814941 14.7955 0.504546C15.4229 0.198783 16.0163 0.029689 16.5744 0.000732422C16.5907 0.147819 16.5975 0.294915 16.5975 0.440843V0.440858Z" fill="white"/>
</g>
<defs>
<clipPath id="clip0_40_123">
<rect width="24" height="24" fill="white" transform="translate(0 0.000488281)"/>
</clipPath>
</defs>
</svg>
