<svg width="24" height="24" viewBox="0 0 24 24" fill="none" xmlns="http://www.w3.org/2000/svg">
<path d="M15.0904 3.33001C15.2804 3.33001 15.4704 3.40001 15.6204 3.55001C15.9104 3.84001 15.9104 4.32001 15.6204 4.61001L9.10039 11.13C8.62039 11.61 8.62039 12.39 9.10039 12.87L15.6204 19.39C15.9104 19.68 15.9104 20.16 15.6204 20.45C15.3304 20.74 14.8504 20.74 14.5604 20.45L8.04039 13.93C7.53039 13.42 7.24039 12.73 7.24039 12C7.24039 11.27 7.52039 10.58 8.04039 10.07L14.5604 3.55001C14.7104 3.41001 14.9004 3.33001 15.0904 3.33001Z" fill="#292D32"/>
</svg>
