<svg width="16" height="17" viewBox="0 0 16 17" fill="none" xmlns="http://www.w3.org/2000/svg">
<path fill-rule="evenodd" clip-rule="evenodd" d="M8 15.186C6.20979 15.186 4.4929 14.4749 3.22703 13.209C1.96116 11.9431 1.25 10.2262 1.25 8.43603C1.25 6.64582 1.96116 4.92893 3.22703 3.66306C4.4929 2.39719 6.20979 1.68603 8 1.68603C9.79021 1.68603 11.5071 2.39719 12.773 3.66306C14.0388 4.92893 14.75 6.64582 14.75 8.43604C14.75 10.2262 14.0388 11.9431 12.773 13.209C11.5071 14.4749 9.79021 15.186 8 15.186V15.186ZM8 16.436C5.87827 16.436 3.84344 15.5932 2.34314 14.0929C0.842854 12.5926 -5.20281e-07 10.5578 -4.11219e-07 8.43603C-3.02157e-07 6.3143 0.842854 4.27947 2.34315 2.77918C3.84344 1.27889 5.87827 0.436035 8 0.436035C10.1217 0.436035 12.1566 1.27889 13.6569 2.77918C15.1571 4.27947 16 6.3143 16 8.43604C16 10.5578 15.1571 12.5926 13.6569 14.0929C12.1566 15.5932 10.1217 16.436 8 16.436V16.436ZM7.47 5.96604L9.19 7.68603L4 7.68603L4 9.18603L9.19 9.18603L7.47 10.906L8.53 11.966L11.53 8.96603C11.6705 8.82541 11.7493 8.63479 11.7493 8.43603C11.7493 8.23728 11.6705 8.04666 11.53 7.90603L8.53 4.90603L7.47 5.96604V5.96604Z" fill="#3B71ED"/>
</svg>
