<svg width="52" height="52" viewBox="0 0 52 52" fill="none" xmlns="http://www.w3.org/2000/svg">
<path d="M26.2507 50.1991C39.4767 50.1991 50.1986 39.4772 50.1986 26.2511C50.1986 13.0251 39.4767 2.30322 26.2507 2.30322C13.0246 2.30322 2.30273 13.0251 2.30273 26.2511C2.30273 39.4772 13.0246 50.1991 26.2507 50.1991Z" stroke="#6857D0" stroke-width="2.75" stroke-linecap="round"/>
<path d="M16.625 37.25C17.6939 35.4609 19.1614 34.0836 20.8193 33.1621C22.5869 32.2084 24.4146 31.7333 26.25 31.7504C28.1389 31.7504 30.0076 32.2308 31.6807 33.1621C33.3412 34.0836 34.8036 35.4609 35.875 37.25" stroke="#6857D0" stroke-width="2.75" stroke-linecap="round"/>
<path d="M18.6888 23.7292C20.081 23.7292 21.2096 22.6006 21.2096 21.2083C21.2096 19.8161 20.081 18.6875 18.6888 18.6875C17.2966 18.6875 16.168 19.8161 16.168 21.2083C16.168 22.6006 17.2966 23.7292 18.6888 23.7292Z" fill="#6857D0" stroke="#6857D0" stroke-width="1.375" stroke-linecap="round"/>
<path d="M33.8138 23.7292C35.206 23.7292 36.3346 22.6006 36.3346 21.2083C36.3346 19.8161 35.206 18.6875 33.8138 18.6875C32.4216 18.6875 31.293 19.8161 31.293 21.2083C31.293 22.6006 32.4216 23.7292 33.8138 23.7292Z" fill="#6857D0" stroke="#6857D0" stroke-width="1.375" stroke-linecap="round"/>
</svg>
