<svg width="52" height="52" viewBox="0 0 52 52" fill="none" xmlns="http://www.w3.org/2000/svg">
<path d="M26.2507 50.1991C39.4767 50.1991 50.1986 39.4772 50.1986 26.2511C50.1986 13.0251 39.4767 2.30322 26.2507 2.30322C13.0246 2.30322 2.30273 13.0251 2.30273 26.2511C2.30273 39.4772 13.0246 50.1991 26.2507 50.1991Z" stroke="#030609" stroke-width="2.75" stroke-linecap="round"/>
<path d="M16.625 37.2502C17.6939 35.4612 19.1614 34.0838 20.8193 33.1623C22.5869 32.2086 24.4146 31.7336 26.25 31.7507C28.1389 31.7507 30.0076 32.231 31.6807 33.1623C33.3412 34.0838 34.8036 35.4612 35.875 37.2502" stroke="#030609" stroke-width="2.75" stroke-linecap="round"/>
<path d="M18.6888 23.7294C20.081 23.7294 21.2096 22.6008 21.2096 21.2086C21.2096 19.8164 20.081 18.6877 18.6888 18.6877C17.2966 18.6877 16.168 19.8164 16.168 21.2086C16.168 22.6008 17.2966 23.7294 18.6888 23.7294Z" fill="#030609" stroke="#030609" stroke-width="1.375" stroke-linecap="round"/>
<path d="M33.8138 23.7294C35.206 23.7294 36.3346 22.6008 36.3346 21.2086C36.3346 19.8164 35.206 18.6877 33.8138 18.6877C32.4216 18.6877 31.293 19.8164 31.293 21.2086C31.293 22.6008 32.4216 23.7294 33.8138 23.7294Z" fill="#030609" stroke="#030609" stroke-width="1.375" stroke-linecap="round"/>
</svg>
