<svg width="24" height="24" viewBox="0 0 24 24" fill="none" xmlns="http://www.w3.org/2000/svg">
<path fill-rule="evenodd" clip-rule="evenodd" d="M12 21.75C10.2098 21.75 8.4929 21.0388 7.22703 19.773C5.96116 18.5071 5.25 16.7902 5.25 15L5.25 7C5.25 5.74022 5.75044 4.53204 6.64124 3.64124C7.53204 2.75044 8.74022 2.25 10 2.25C11.2598 2.25 12.468 2.75044 13.3588 3.64124C14.2496 4.53204 14.75 5.74022 14.75 7L14.75 15.143C14.75 15.8723 14.4603 16.5718 13.9445 17.0875C13.4288 17.6033 12.7293 17.893 12 17.893C11.2707 17.893 10.5712 17.6033 10.0555 17.0875C9.53973 16.5718 9.25 15.8723 9.25 15.143L9.25 7.286C9.25 7.08709 9.32902 6.89632 9.46967 6.75567C9.61032 6.61502 9.80109 6.536 10 6.536C10.1989 6.536 10.3897 6.61502 10.5303 6.75567C10.671 6.89632 10.75 7.08709 10.75 7.286L10.75 15.143C10.75 15.4745 10.8817 15.7925 11.1161 16.0269C11.3505 16.2613 11.6685 16.393 12 16.393C12.3315 16.393 12.6495 16.2613 12.8839 16.0269C13.1183 15.7925 13.25 15.4745 13.25 15.143L13.25 7C13.25 6.13805 12.9076 5.3114 12.2981 4.7019C11.6886 4.09241 10.862 3.75 10 3.75C9.13805 3.75 8.3114 4.09241 7.7019 4.7019C7.09241 5.3114 6.75 6.13805 6.75 7L6.75 15C6.75 16.3924 7.30312 17.7277 8.28769 18.7123C9.27225 19.6969 10.6076 20.25 12 20.25C13.3924 20.25 14.7277 19.6969 15.7123 18.7123C16.6969 17.7277 17.25 16.3924 17.25 15L17.25 7.286C17.25 7.08709 17.329 6.89632 17.4697 6.75567C17.6103 6.61502 17.8011 6.536 18 6.536C18.1989 6.536 18.3897 6.61502 18.5303 6.75567C18.671 6.89632 18.75 7.08709 18.75 7.286L18.75 15C18.75 16.7902 18.0388 18.5071 16.773 19.773C15.5071 21.0388 13.7902 21.75 12 21.75Z" fill="black"/>
</svg>
