<svg width="45" height="45" viewBox="0 0 45 45" fill="none" xmlns="http://www.w3.org/2000/svg">
<g opacity="0.2" filter="url(#filter0_d_968_561)">
<circle cx="22.5" cy="22.5" r="22.5" fill="#433FFA"/>
</g>
<path d="M31.3289 15.2459C30.1499 18.1889 27.4589 22.0319 24.8939 24.5429C24.5249 22.2209 22.6709 20.4029 20.3309 20.0789C22.8509 17.5049 26.7209 14.7779 29.6729 13.5899C30.1949 13.3919 30.7169 13.5449 31.0409 13.8689C31.3829 14.2109 31.5449 14.7239 31.3289 15.2459Z" fill="#0147FC"/>
<path d="M24.1019 25.2809C23.9219 25.4339 23.7419 25.5869 23.5619 25.7309L21.9509 27.0179C21.9509 26.9909 21.9419 26.9549 21.9419 26.9189C21.8159 25.9559 21.3659 25.0649 20.6369 24.3359C19.8989 23.5979 18.9809 23.1479 17.9729 23.0219C17.9459 23.0219 17.9099 23.0129 17.8829 23.0129L19.1879 21.3659C19.3139 21.2039 19.4489 21.0509 19.5929 20.8889L20.2049 20.9699C22.1399 21.2399 23.6969 22.7609 24.0029 24.6869L24.1019 25.2809Z" fill="#0147FC"/>
<path d="M21.087 27.5579C21.087 28.5479 20.709 29.4929 19.989 30.2039C19.44 30.7619 18.702 31.1399 17.802 31.2479L15.597 31.4909C14.391 31.6259 13.356 30.5909 13.491 29.3759L13.734 27.1619C13.95 25.1909 15.597 23.9309 17.343 23.8949C17.514 23.8859 17.703 23.8949 17.883 23.9129C18.648 24.0119 19.386 24.3629 20.007 24.9749C20.61 25.5779 20.952 26.2889 21.051 27.0359C21.069 27.2159 21.087 27.3869 21.087 27.5579Z" fill="#0147FC"/>
<defs>
<filter id="filter0_d_968_561" x="-24.3169" y="0" width="93.6338" height="96.3356" filterUnits="userSpaceOnUse" color-interpolation-filters="sRGB">
<feFlood flood-opacity="0" result="BackgroundImageFix"/>
<feColorMatrix in="SourceAlpha" type="matrix" values="0 0 0 0 0 0 0 0 0 0 0 0 0 0 0 0 0 0 127 0" result="hardAlpha"/>
<feMorphology radius="7.205" operator="erode" in="SourceAlpha" result="effect1_dropShadow_968_561"/>
<feOffset dy="27.0187"/>
<feGaussianBlur stdDeviation="15.7609"/>
<feColorMatrix type="matrix" values="0 0 0 0 0.980392 0 0 0 0 0.701961 0 0 0 0 0.247059 0 0 0 0.15 0"/>
<feBlend mode="normal" in2="BackgroundImageFix" result="effect1_dropShadow_968_561"/>
<feBlend mode="normal" in="SourceGraphic" in2="effect1_dropShadow_968_561" result="shape"/>
</filter>
</defs>
</svg>
