<svg width="25" height="25" viewBox="0 0 25 25" fill="none" xmlns="http://www.w3.org/2000/svg">
<path d="M8.86816 6.71875C8.45816 6.71875 8.11816 6.37875 8.11816 5.96875V2.96875C8.11816 2.55875 8.45816 2.21875 8.86816 2.21875C9.27816 2.21875 9.61816 2.55875 9.61816 2.96875V5.96875C9.61816 6.37875 9.27816 6.71875 8.86816 6.71875Z" fill="#AFAFAF"/>
<path d="M16.8682 6.71875C16.4582 6.71875 16.1182 6.37875 16.1182 5.96875V2.96875C16.1182 2.55875 16.4582 2.21875 16.8682 2.21875C17.2782 2.21875 17.6182 2.55875 17.6182 2.96875V5.96875C17.6182 6.37875 17.2782 6.71875 16.8682 6.71875Z" fill="#AFAFAF"/>
<path d="M9.36816 15.4688C9.23816 15.4688 9.10816 15.4388 8.98816 15.3888C8.85816 15.3388 8.75816 15.2687 8.65816 15.1787C8.47817 14.9887 8.36816 14.7388 8.36816 14.4688C8.36816 14.3388 8.39817 14.2088 8.44817 14.0888C8.49817 13.9688 8.56816 13.8588 8.65816 13.7588C8.75816 13.6688 8.85816 13.5987 8.98816 13.5487C9.34816 13.3987 9.79816 13.4788 10.0782 13.7588C10.2582 13.9488 10.3682 14.2088 10.3682 14.4688C10.3682 14.5288 10.3582 14.5988 10.3482 14.6688C10.3382 14.7288 10.3182 14.7888 10.2882 14.8488C10.2682 14.9088 10.2382 14.9688 10.1982 15.0288C10.1682 15.0788 10.1182 15.1287 10.0782 15.1787C9.88816 15.3587 9.62816 15.4688 9.36816 15.4688Z" fill="#AFAFAF"/>
<path d="M12.8682 15.4687C12.7382 15.4687 12.6082 15.4388 12.4882 15.3888C12.3582 15.3388 12.2582 15.2687 12.1582 15.1787C11.9782 14.9887 11.8682 14.7387 11.8682 14.4687C11.8682 14.3387 11.8982 14.2087 11.9482 14.0887C11.9982 13.9687 12.0682 13.8588 12.1582 13.7588C12.2582 13.6688 12.3582 13.5987 12.4882 13.5487C12.8482 13.3887 13.2982 13.4788 13.5782 13.7588C13.7582 13.9488 13.8682 14.2087 13.8682 14.4687C13.8682 14.5287 13.8582 14.5988 13.8482 14.6688C13.8382 14.7288 13.8182 14.7887 13.7882 14.8488C13.7682 14.9088 13.7382 14.9687 13.6982 15.0287C13.6682 15.0787 13.6182 15.1287 13.5782 15.1787C13.3882 15.3587 13.1282 15.4687 12.8682 15.4687Z" fill="#AFAFAF"/>
<path d="M16.3682 15.4687C16.2382 15.4687 16.1082 15.4388 15.9882 15.3888C15.8582 15.3388 15.7582 15.2687 15.6582 15.1787C15.6182 15.1287 15.5782 15.0787 15.5382 15.0287C15.4982 14.9687 15.4682 14.9088 15.4482 14.8488C15.4182 14.7887 15.3982 14.7288 15.3882 14.6688C15.3782 14.5988 15.3682 14.5287 15.3682 14.4687C15.3682 14.2087 15.4782 13.9488 15.6582 13.7588C15.7582 13.6688 15.8582 13.5987 15.9882 13.5487C16.3582 13.3887 16.7982 13.4788 17.0782 13.7588C17.2582 13.9488 17.3682 14.2087 17.3682 14.4687C17.3682 14.5287 17.3582 14.5988 17.3482 14.6688C17.3382 14.7288 17.3182 14.7887 17.2882 14.8488C17.2682 14.9088 17.2382 14.9687 17.1982 15.0287C17.1682 15.0787 17.1182 15.1287 17.0782 15.1787C16.8882 15.3587 16.6282 15.4687 16.3682 15.4687Z" fill="#AFAFAF"/>
<path d="M9.36816 18.9688C9.23816 18.9688 9.10816 18.9388 8.98816 18.8888C8.86816 18.8388 8.75816 18.7687 8.65816 18.6787C8.47817 18.4887 8.36816 18.2288 8.36816 17.9688C8.36816 17.8388 8.39817 17.7087 8.44817 17.5887C8.49817 17.4587 8.56816 17.3488 8.65816 17.2588C9.02816 16.8888 9.70816 16.8888 10.0782 17.2588C10.2582 17.4488 10.3682 17.7088 10.3682 17.9688C10.3682 18.2288 10.2582 18.4887 10.0782 18.6787C9.88816 18.8587 9.62816 18.9688 9.36816 18.9688Z" fill="#AFAFAF"/>
<path d="M12.8682 18.9688C12.6082 18.9688 12.3482 18.8587 12.1582 18.6787C11.9782 18.4887 11.8682 18.2288 11.8682 17.9688C11.8682 17.8388 11.8982 17.7087 11.9482 17.5887C11.9982 17.4587 12.0682 17.3488 12.1582 17.2588C12.5282 16.8888 13.2082 16.8888 13.5782 17.2588C13.6682 17.3488 13.7382 17.4587 13.7882 17.5887C13.8382 17.7087 13.8682 17.8388 13.8682 17.9688C13.8682 18.2288 13.7582 18.4887 13.5782 18.6787C13.3882 18.8587 13.1282 18.9688 12.8682 18.9688Z" fill="#AFAFAF"/>
<path d="M16.3682 18.9688C16.1082 18.9688 15.8482 18.8588 15.6582 18.6788C15.5682 18.5888 15.4982 18.4788 15.4482 18.3488C15.3982 18.2288 15.3682 18.0988 15.3682 17.9688C15.3682 17.8388 15.3982 17.7088 15.4482 17.5888C15.4982 17.4588 15.5682 17.3488 15.6582 17.2588C15.8882 17.0288 16.2382 16.9188 16.5582 16.9888C16.6282 16.9988 16.6882 17.0188 16.7482 17.0488C16.8082 17.0688 16.8682 17.0988 16.9282 17.1388C16.9782 17.1688 17.0282 17.2188 17.0782 17.2588C17.2582 17.4488 17.3682 17.7088 17.3682 17.9688C17.3682 18.2288 17.2582 18.4888 17.0782 18.6788C16.8882 18.8588 16.6282 18.9688 16.3682 18.9688Z" fill="#AFAFAF"/>
<path d="M21.3682 10.8087H4.36816C3.95816 10.8087 3.61816 10.4687 3.61816 10.0587C3.61816 9.64872 3.95816 9.30872 4.36816 9.30872H21.3682C21.7782 9.30872 22.1182 9.64872 22.1182 10.0587C22.1182 10.4687 21.7782 10.8087 21.3682 10.8087Z" fill="#AFAFAF"/>
<path d="M16.8682 23.7188H8.86816C5.21816 23.7188 3.11816 21.6187 3.11816 17.9688V9.46875C3.11816 5.81875 5.21816 3.71875 8.86816 3.71875H16.8682C20.5182 3.71875 22.6182 5.81875 22.6182 9.46875V17.9688C22.6182 21.6187 20.5182 23.7188 16.8682 23.7188ZM8.86816 5.21875C6.00816 5.21875 4.61816 6.60875 4.61816 9.46875V17.9688C4.61816 20.8288 6.00816 22.2188 8.86816 22.2188H16.8682C19.7282 22.2188 21.1182 20.8288 21.1182 17.9688V9.46875C21.1182 6.60875 19.7282 5.21875 16.8682 5.21875H8.86816Z" fill="#AFAFAF"/>
</svg>
