<svg width="45" height="45" viewBox="0 0 45 45" fill="none" xmlns="http://www.w3.org/2000/svg">
<g opacity="0.2" filter="url(#filter0_d_968_547)">
<circle cx="22.5" cy="22.5" r="22.5" fill="#FAB33F"/>
</g>
<path d="M27.8999 13.5H17.0999C15.6059 13.5 14.3999 14.697 14.3999 16.173V25.992C14.3999 27.468 15.6059 28.665 17.0999 28.665H17.7839C18.5039 28.665 19.1879 28.944 19.6919 29.448L21.2309 30.969C21.9329 31.662 23.0759 31.662 23.7779 30.969L25.3169 29.448C25.8209 28.944 26.5139 28.665 27.2249 28.665H27.8999C29.3939 28.665 30.5999 27.468 30.5999 25.992V16.173C30.5999 14.697 29.3939 13.5 27.8999 13.5ZM21.0419 23.409C21.4109 23.409 21.7169 23.715 21.7169 24.084C21.7169 24.453 21.4109 24.759 21.0419 24.759H18.6299C18.2339 24.759 17.8649 24.57 17.6309 24.246C17.4059 23.94 17.3519 23.562 17.4599 23.202C17.7749 22.239 18.5489 21.717 19.2329 21.249C19.9529 20.763 20.3579 20.457 20.3579 19.935C20.3579 19.467 19.9799 19.089 19.5119 19.089C19.0439 19.089 18.6749 19.476 18.6749 19.944C18.6749 20.313 18.3689 20.619 17.9999 20.619C17.6309 20.619 17.3249 20.313 17.3249 19.944C17.3249 18.738 18.3059 17.748 19.5209 17.748C20.7359 17.748 21.7169 18.729 21.7169 19.944C21.7169 21.213 20.7629 21.861 19.9979 22.383C19.5209 22.707 19.0709 23.013 18.8459 23.418H21.0419V23.409ZM26.9999 23.472H26.8109V24.093C26.8109 24.462 26.5049 24.768 26.1359 24.768C25.7669 24.768 25.4609 24.462 25.4609 24.093V23.472H23.6969C23.6969 23.472 23.6969 23.472 23.6879 23.472C23.2469 23.472 22.8419 23.238 22.6169 22.86C22.3919 22.473 22.3919 21.996 22.6169 21.618C23.2289 20.565 23.9399 19.368 24.5879 18.324C24.8759 17.865 25.4249 17.658 25.9379 17.802C26.4509 17.955 26.8109 18.423 26.8019 18.963V22.131H26.9999C27.3689 22.131 27.6749 22.437 27.6749 22.806C27.6749 23.175 27.3689 23.472 26.9999 23.472Z" fill="#FCC101"/>
<path d="M25.461 22.122V19.476C24.93 20.34 24.381 21.267 23.886 22.113H25.461V22.122Z" fill="#FCC101"/>
<defs>
<filter id="filter0_d_968_547" x="-24.3169" y="0" width="93.6338" height="96.3356" filterUnits="userSpaceOnUse" color-interpolation-filters="sRGB">
<feFlood flood-opacity="0" result="BackgroundImageFix"/>
<feColorMatrix in="SourceAlpha" type="matrix" values="0 0 0 0 0 0 0 0 0 0 0 0 0 0 0 0 0 0 127 0" result="hardAlpha"/>
<feMorphology radius="7.205" operator="erode" in="SourceAlpha" result="effect1_dropShadow_968_547"/>
<feOffset dy="27.0187"/>
<feGaussianBlur stdDeviation="15.7609"/>
<feColorMatrix type="matrix" values="0 0 0 0 0.980392 0 0 0 0 0.701961 0 0 0 0 0.247059 0 0 0 0.15 0"/>
<feBlend mode="normal" in2="BackgroundImageFix" result="effect1_dropShadow_968_547"/>
<feBlend mode="normal" in="SourceGraphic" in2="effect1_dropShadow_968_547" result="shape"/>
</filter>
</defs>
</svg>
