<svg width="24" height="24" viewBox="0 0 24 24" fill="none" xmlns="http://www.w3.org/2000/svg">
<path d="M12.4576 22H8.54242C4.01939 22 2 19.9806 2 15.4576V11.5424C2 7.01939 4.01939 5 8.54242 5H11.6333C12.0558 5 12.4061 5.3503 12.4061 5.77273C12.4061 6.19515 12.0558 6.54545 11.6333 6.54545H8.54242C4.85394 6.54545 3.54545 7.85394 3.54545 11.5424V15.4576C3.54545 19.1461 4.85394 20.4545 8.54242 20.4545H12.4576C16.1461 20.4545 17.4545 19.1461 17.4545 15.4576V12.3667C17.4545 11.9442 17.8048 11.5939 18.2273 11.5939C18.6497 11.5939 19 11.9442 19 12.3667V15.4576C19 19.9806 16.9806 22 12.4576 22Z" fill="white"/>
<path d="M18.2419 13H15.0007C12.1546 13 11 11.8454 11 8.99925V5.75814C11 5.45429 11.1823 5.17069 11.4659 5.05928C11.7495 4.93773 12.0736 5.00863 12.2964 5.22133L18.7787 11.7036C18.9914 11.9163 19.0623 12.2505 18.9407 12.5341C18.8293 12.8177 18.5457 13 18.2419 13ZM12.5193 7.5914V8.99925C12.5193 11.0148 12.9852 11.4807 15.0007 11.4807H16.4086L12.5193 7.5914Z" fill="white"/>
<path d="M15.5996 2.75H11.5996C11.1896 2.75 10.8496 2.41 10.8496 2C10.8496 1.59 11.1896 1.25 11.5996 1.25H15.5996C16.0096 1.25 16.3496 1.59 16.3496 2C16.3496 2.41 16.0096 2.75 15.5996 2.75Z" fill="white"/>
<path d="M7 4.75C6.59 4.75 6.25 4.41 6.25 4C6.25 1.93 7.93 1.25 10 1.25H12.62C13.03 1.25 13.37 1.59 13.37 2C13.37 2.41 13.03 2.75 12.62 2.75H10C8.76 2.75 7.75 2.76 7.75 4C7.75 4.41 7.41 4.75 7 4.75Z" fill="white"/>
<path d="M20.1895 17.75C19.7795 17.75 19.4395 17.41 19.4395 17C19.4395 16.59 19.7795 16.25 20.1895 16.25C21.3295 16.25 21.2495 15.32 21.2495 14.19V8C21.2495 7.59 21.5895 7.25 21.9995 7.25C22.4095 7.25 22.7495 7.59 22.7495 8V14.19C22.7495 16.15 22.1495 17.75 20.1895 17.75Z" fill="white"/>
<path d="M22 8.74999L20 7C20 7 18.1226 5.21854 17 4C16.2968 3.23672 15.25 1.99999 15.25 1.99999C15.25 1.69999 15.43 1.41999 15.71 1.30999C15.99 1.18999 16.31 1.25999 16.53 1.46999L22.53 7.46999C22.74 7.67999 22.81 8.00999 22.69 8.28999C22.58 8.56999 22.3 8.74999 22 8.74999Z" fill="white"/>
<path d="M10.4 14.5H5.6C5.272 14.5 5 14.16 5 13.75C5 13.34 5.272 13 5.6 13H10.4C10.728 13 11 13.34 11 13.75C11 14.16 10.728 14.5 10.4 14.5Z" fill="white"/>
<path d="M7.45388 17.5H5.54612C5.24757 17.5 5 17.16 5 16.75C5 16.34 5.24757 16 5.54612 16H7.45388C7.75243 16 8 16.34 8 16.75C8 17.16 7.75971 17.5 7.45388 17.5Z" fill="white"/>
</svg>
