<svg width="90" height="90" viewBox="0 0 90 90" fill="none" xmlns="http://www.w3.org/2000/svg">
<circle cx="45" cy="45" r="45" fill="#E9DBC4"/>
<path d="M43.8125 36.1558C41.7065 36.7318 40.4375 38.3495 40.4375 39.875C40.4375 41.4005 41.7065 43.0183 43.8125 43.592V36.1558ZM47.1875 47.408V54.842C49.2935 54.2683 50.5625 52.6505 50.5625 51.125C50.5625 49.5995 49.2935 47.9817 47.1875 47.408Z" fill="#FCC101"/>
<path fill-rule="evenodd" clip-rule="evenodd" d="M68 45.5C68 57.9267 57.9267 68 45.5 68C33.0733 68 23 57.9267 23 45.5C23 33.0733 33.0733 23 45.5 23C57.9267 23 68 33.0733 68 45.5ZM45.5 30.3125C45.9476 30.3125 46.3768 30.4903 46.6932 30.8068C47.0097 31.1232 47.1875 31.5524 47.1875 32V32.7133C50.855 33.3703 53.9375 36.1265 53.9375 39.875C53.9375 40.3226 53.7597 40.7518 53.4432 41.0682C53.1268 41.3847 52.6976 41.5625 52.25 41.5625C51.8024 41.5625 51.3732 41.3847 51.0568 41.0682C50.7403 40.7518 50.5625 40.3226 50.5625 39.875C50.5625 38.3495 49.2935 36.7318 47.1875 36.1558V43.9633C50.855 44.6203 53.9375 47.3765 53.9375 51.125C53.9375 54.8735 50.855 57.6298 47.1875 58.2868V59C47.1875 59.4476 47.0097 59.8768 46.6932 60.1932C46.3768 60.5097 45.9476 60.6875 45.5 60.6875C45.0524 60.6875 44.6232 60.5097 44.3068 60.1932C43.9903 59.8768 43.8125 59.4476 43.8125 59V58.2868C40.145 57.6298 37.0625 54.8735 37.0625 51.125C37.0625 50.6774 37.2403 50.2482 37.5568 49.9318C37.8732 49.6153 38.3024 49.4375 38.75 49.4375C39.1976 49.4375 39.6268 49.6153 39.9432 49.9318C40.2597 50.2482 40.4375 50.6774 40.4375 51.125C40.4375 52.6505 41.7065 54.2683 43.8125 54.842V47.0367C40.145 46.3797 37.0625 43.6235 37.0625 39.875C37.0625 36.1265 40.145 33.3703 43.8125 32.7133V32C43.8125 31.5524 43.9903 31.1232 44.3068 30.8068C44.6232 30.4903 45.0524 30.3125 45.5 30.3125Z" fill="#FCC101"/>
</svg>
