<svg width="45" height="45" viewBox="0 0 45 45" fill="none" xmlns="http://www.w3.org/2000/svg">
<g opacity="0.2" filter="url(#filter0_d_968_578)">
<circle cx="22.5" cy="22.5" r="22.5" fill="#FA3F3F"/>
</g>
<path d="M20.9249 20.7269C20.9249 21.2129 21.0599 21.2849 21.3659 21.3929L21.8249 21.5549V20.0249H21.5549C21.2129 20.0249 20.9249 20.3399 20.9249 20.7269Z" fill="#FC0101"/>
<path d="M23.175 24.9749H23.445C23.796 24.9749 24.075 24.6599 24.075 24.2729C24.075 23.7869 23.94 23.7149 23.634 23.6069L23.175 23.4449V24.9749Z" fill="#FC0101"/>
<path d="M29.322 16.632L27.477 18.477C27.342 18.612 27.171 18.675 27 18.675C26.829 18.675 26.658 18.612 26.523 18.477C26.262 18.216 26.262 17.784 26.523 17.523L28.368 15.678C26.784 14.328 24.741 13.5 22.5 13.5C17.532 13.5 13.5 17.532 13.5 22.5C13.5 27.468 17.532 31.5 22.5 31.5C27.468 31.5 31.5 27.468 31.5 22.5C31.5 20.259 30.672 18.216 29.322 16.632ZM24.075 22.338C24.651 22.545 25.425 22.959 25.425 24.282C25.425 25.407 24.534 26.334 23.445 26.334H23.175V26.559C23.175 26.928 22.869 27.234 22.5 27.234C22.131 27.234 21.825 26.928 21.825 26.559V26.334H21.753C20.556 26.334 19.575 25.326 19.575 24.084C19.575 23.706 19.881 23.4 20.25 23.4C20.619 23.4 20.925 23.706 20.925 24.075C20.925 24.57 21.294 24.975 21.753 24.975H21.825V22.977L20.925 22.662C20.349 22.455 19.575 22.041 19.575 20.718C19.575 19.593 20.466 18.666 21.555 18.666H21.825V18.45C21.825 18.081 22.131 17.775 22.5 17.775C22.869 17.775 23.175 18.081 23.175 18.45V18.675H23.247C24.444 18.675 25.425 19.683 25.425 20.925C25.425 21.294 25.119 21.6 24.75 21.6C24.381 21.6 24.075 21.294 24.075 20.925C24.075 20.43 23.706 20.025 23.247 20.025H23.175V22.023L24.075 22.338Z" fill="#FC0101"/>
<path d="M32.121 13.239C32.049 13.077 31.923 12.942 31.752 12.87C31.671 12.843 31.59 12.825 31.5 12.825H27.9C27.531 12.825 27.225 13.131 27.225 13.5C27.225 13.869 27.531 14.175 27.9 14.175H29.871L28.368 15.678C28.71 15.975 29.025 16.29 29.322 16.632L30.825 15.129V17.1C30.825 17.469 31.131 17.775 31.5 17.775C31.869 17.775 32.175 17.469 32.175 17.1V13.5C32.175 13.41 32.157 13.329 32.121 13.239Z" fill="#FC0101"/>
<defs>
<filter id="filter0_d_968_578" x="-24.3169" y="0" width="93.6338" height="96.3356" filterUnits="userSpaceOnUse" color-interpolation-filters="sRGB">
<feFlood flood-opacity="0" result="BackgroundImageFix"/>
<feColorMatrix in="SourceAlpha" type="matrix" values="0 0 0 0 0 0 0 0 0 0 0 0 0 0 0 0 0 0 127 0" result="hardAlpha"/>
<feMorphology radius="7.205" operator="erode" in="SourceAlpha" result="effect1_dropShadow_968_578"/>
<feOffset dy="27.0187"/>
<feGaussianBlur stdDeviation="15.7609"/>
<feColorMatrix type="matrix" values="0 0 0 0 0.980392 0 0 0 0 0.701961 0 0 0 0 0.247059 0 0 0 0.15 0"/>
<feBlend mode="normal" in2="BackgroundImageFix" result="effect1_dropShadow_968_578"/>
<feBlend mode="normal" in="SourceGraphic" in2="effect1_dropShadow_968_578" result="shape"/>
</filter>
</defs>
</svg>
