<svg width="33" height="33" viewBox="0 0 33 33" fill="none" xmlns="http://www.w3.org/2000/svg">
<g clip-path="url(#clip0_245_1758)">
<path d="M22.3258 8.44229H18.2669C17.5197 8.44229 16.9139 9.04804 16.9139 9.79525V13.8541H22.3258C22.4796 13.8507 22.6256 13.9223 22.7171 14.0461C22.8085 14.1699 22.8342 14.3304 22.7858 14.4765L21.7846 17.453C21.6923 17.7262 21.437 17.9108 21.1487 17.913H16.9139V28.0602C16.9139 28.4338 16.611 28.7367 16.2375 28.7367H12.8551C12.4815 28.7367 12.1786 28.4338 12.1786 28.0602V17.913H10.1491C9.77553 17.913 9.47266 17.6101 9.47266 17.2365V14.5306C9.47266 14.1571 9.77553 13.8541 10.1491 13.8541H12.1786V9.79525C12.1786 6.80637 14.6016 4.38341 17.5904 4.38341H22.3258C22.6993 4.38341 23.0023 4.68628 23.0023 5.05989V7.76581C23.0023 8.13942 22.6993 8.44229 22.3258 8.44229Z" fill="#0E0F0C"/>
</g>
<defs>
<clipPath id="clip0_245_1758">
<rect width="32.4711" height="32.4711" fill="white" transform="translate(0 0.326172)"/>
</clipPath>
</defs>
</svg>
