<svg width="29" height="29" viewBox="0 0 29 29" fill="none" xmlns="http://www.w3.org/2000/svg">
<path d="M24.9118 0.436035H3.55882C1.59613 0.436035 0 2.03217 0 3.99486V25.3478C0 27.3105 1.59613 28.9066 3.55882 28.9066H24.9118C26.8745 28.9066 28.4706 27.3105 28.4706 25.3478V3.99486C28.4706 2.03217 26.8745 0.436035 24.9118 0.436035Z" fill="#3B71ED"/>
<path fill-rule="evenodd" clip-rule="evenodd" d="M18 13.0514H15.6667V11.2053C15.6667 10.6957 16.0848 10.7437 16.6 10.7437H17.5333V8.43604H15.6667C14.9241 8.43604 14.2119 8.72779 13.6868 9.24712C13.1617 9.76646 12.8667 10.4708 12.8667 11.2053V13.0514H11V15.3591H12.8667V20.436H15.6667V15.3591H17.0667L18 13.0514Z" fill="white"/>
</svg>
