<svg width="18" height="18" viewBox="0 0 18 18" fill="none" xmlns="http://www.w3.org/2000/svg">
<path d="M7.4925 17.0625C7.3425 17.0625 7.2225 17.0325 7.1325 16.995C6.8325 16.8825 6.3225 16.515 6.3225 15.3525V10.515H4.5675C3.5625 10.515 3.2025 10.0425 3.075 9.76497C2.9475 9.47997 2.835 8.90247 3.495 8.14497L9.1725 1.69497C9.9375 0.824974 10.56 0.884974 10.86 0.997474C11.16 1.10997 11.67 1.47747 11.67 2.63997V7.47747H13.425C14.43 7.47747 14.79 7.94997 14.9175 8.22747C15.045 8.51247 15.1575 9.08997 14.4975 9.84748L8.82 16.2975C8.2875 16.905 7.8225 17.0625 7.4925 17.0625ZM10.4475 2.05497C10.425 2.08497 10.2675 2.15997 10.02 2.44497L4.3425 8.89497C4.1325 9.13497 4.1025 9.28497 4.1025 9.31497C4.1175 9.32247 4.2525 9.39747 4.5675 9.39747H6.885C7.1925 9.39747 7.4475 9.65247 7.4475 9.95997V15.36C7.4475 15.735 7.515 15.9 7.545 15.945C7.5675 15.915 7.725 15.84 7.9725 15.555L13.65 9.10497C13.86 8.86497 13.89 8.71497 13.89 8.68497C13.875 8.67747 13.74 8.60247 13.425 8.60247H11.1075C10.8 8.60247 10.545 8.34747 10.545 8.03997V2.63997C10.5525 2.26497 10.4775 2.10747 10.4475 2.05497Z" fill="#6857D0"/>
</svg>
