<svg width="50" height="50" viewBox="0 0 50 50" fill="none" xmlns="http://www.w3.org/2000/svg">
<path d="M25.2507 48.2974C37.9796 48.2974 48.2984 37.9786 48.2984 25.2498C48.2984 12.5209 37.9796 2.20215 25.2507 2.20215C12.5219 2.20215 2.20312 12.5209 2.20312 25.2498C2.20312 37.9786 12.5219 48.2974 25.2507 48.2974Z" stroke="#6857D0" stroke-width="2.75" stroke-linecap="round" stroke-linejoin="round"/>
<path d="M18.047 20.9269C19.6381 20.9269 20.9279 19.6371 20.9279 18.046C20.9279 16.4549 19.6381 15.165 18.047 15.165C16.4559 15.165 15.166 16.4549 15.166 18.046C15.166 19.6371 16.4559 20.9269 18.047 20.9269Z" fill="#6857D0"/>
<path d="M32.4532 20.9269C34.0443 20.9269 35.3342 19.6371 35.3342 18.046C35.3342 16.4549 34.0443 15.165 32.4532 15.165C30.8621 15.165 29.5723 16.4549 29.5723 18.046C29.5723 19.6371 30.8621 20.9269 32.4532 20.9269Z" fill="#6857D0"/>
<path d="M16.6094 28.1309C18.3466 31.9712 21.2275 33.8928 25.2522 33.8928C29.2769 33.8928 32.1579 31.9712 33.8951 28.1309" stroke="#6857D0" stroke-width="2.75" stroke-linecap="round" stroke-linejoin="round"/>
</svg>
