<svg width="50" height="50" viewBox="0 0 50 50" fill="none" xmlns="http://www.w3.org/2000/svg">
<path d="M25.2507 48.2974C37.9796 48.2974 48.2984 37.9786 48.2984 25.2498C48.2984 12.5209 37.9796 2.20215 25.2507 2.20215C12.5219 2.20215 2.20312 12.5209 2.20312 25.2498C2.20312 37.9786 12.5219 48.2974 25.2507 48.2974Z" stroke="#030609" stroke-width="2.75" stroke-linecap="round" stroke-linejoin="round"/>
<path d="M18.047 20.9272C19.6381 20.9272 20.9279 19.6373 20.9279 18.0462C20.9279 16.4551 19.6381 15.1653 18.047 15.1653C16.4559 15.1653 15.166 16.4551 15.166 18.0462C15.166 19.6373 16.4559 20.9272 18.047 20.9272Z" fill="#030609"/>
<path d="M32.4532 20.9272C34.0443 20.9272 35.3342 19.6373 35.3342 18.0462C35.3342 16.4551 34.0443 15.1653 32.4532 15.1653C30.8621 15.1653 29.5723 16.4551 29.5723 18.0462C29.5723 19.6373 30.8621 20.9272 32.4532 20.9272Z" fill="#030609"/>
<path d="M16.6094 28.1311C18.3466 31.9714 21.2275 33.893 25.2522 33.893C29.2769 33.893 32.1579 31.9714 33.8951 28.1311" stroke="#030609" stroke-width="2.75" stroke-linecap="round" stroke-linejoin="round"/>
</svg>
