<svg width="25" height="24" viewBox="0 0 25 24" fill="none" xmlns="http://www.w3.org/2000/svg">
<g clip-path="url(#clip0_40_104)">
<g clip-path="url(#clip1_40_104)">
<path d="M0.5 -0.00927734H24.5V23.9907H0.5V-0.00927734Z" fill="white"/>
<path fill-rule="evenodd" clip-rule="evenodd" d="M23.54 12.2517C23.54 11.4367 23.467 10.6517 23.33 9.89966H12.5V14.3477H18.69C18.5618 15.0514 18.2923 15.7218 17.8977 16.3184C17.503 16.915 16.9915 17.4254 16.394 17.8187V20.7047H20.111C22.285 18.7027 23.54 15.7547 23.54 12.2517Z" fill="#4285F4"/>
<path fill-rule="evenodd" clip-rule="evenodd" d="M12.5 23.4908C15.605 23.4908 18.208 22.4608 20.11 20.7048L16.394 17.8188C15.364 18.5088 14.047 18.9168 12.5 18.9168C9.50502 18.9168 6.97002 16.8938 6.06502 14.1758H2.22302V17.1558C3.18014 19.0608 4.64815 20.6622 6.46301 21.7809C8.27787 22.8996 10.3681 23.4916 12.5 23.4908Z" fill="#34A853"/>
<path fill-rule="evenodd" clip-rule="evenodd" d="M6.065 14.1757C5.82837 13.4714 5.70681 12.7336 5.705 11.9907C5.705 11.2327 5.835 10.4957 6.065 9.80568V6.82568H2.223C1.41802 8.42838 0.99919 10.1972 1 11.9907C1 13.8467 1.444 15.6027 2.223 17.1557L6.065 14.1757Z" fill="#FBBC05"/>
<path fill-rule="evenodd" clip-rule="evenodd" d="M12.5 5.06472C14.188 5.06472 15.704 5.64472 16.896 6.78472L20.195 3.48572C18.203 1.63072 15.6 0.490724 12.5 0.490724C10.3681 0.48987 8.27787 1.08188 6.46301 2.20061C4.64815 3.31933 3.18014 4.92069 2.22302 6.82572L6.06502 9.80572C6.97002 7.08772 9.50502 5.06472 12.5 5.06472Z" fill="#EA4335"/>
</g>
</g>
<defs>
<clipPath id="clip0_40_104">
<rect width="24" height="24" fill="white" transform="translate(0.5 -0.00927734)"/>
</clipPath>
<clipPath id="clip1_40_104">
<rect width="24" height="24" fill="white" transform="translate(0.5 -0.00927734)"/>
</clipPath>
</defs>
</svg>
