<svg width="23" height="18" viewBox="0 0 23 18" fill="none" xmlns="http://www.w3.org/2000/svg">
<path fill-rule="evenodd" clip-rule="evenodd" d="M1.3945 1.88838C1.24436 1.89534 1.09978 1.94724 0.979494 2.03737C0.859212 2.1275 0.768784 2.25169 0.719938 2.39383C0.671091 2.53597 0.666079 2.68952 0.705552 2.83454C0.745025 2.97957 0.827162 3.10939 0.94131 3.20717L6.71894 8.14869L13.574 4.88575C13.7536 4.80026 13.9598 4.78962 14.1473 4.85617C14.3347 4.92272 14.488 5.061 14.5735 5.24061C14.659 5.42021 14.6697 5.62642 14.6031 5.81387C14.5366 6.00132 14.3983 6.15466 14.2187 6.24015L7.36362 9.50309L7.55573 17.1033C7.55964 17.2535 7.6086 17.3991 7.69627 17.5212C7.78394 17.6433 7.90627 17.7362 8.04739 17.7879C8.18852 17.8397 8.34192 17.8478 8.48772 17.8113C8.63352 17.7747 8.76498 17.6953 8.86505 17.5831L22.5824 2.19373C22.6805 2.08355 22.7439 1.9469 22.7647 1.80088C22.7855 1.65487 22.7628 1.50595 22.6994 1.37278C22.636 1.2396 22.5347 1.12807 22.4083 1.05214C22.2818 0.976211 22.1358 0.939247 21.9885 0.945876L1.3945 1.88838Z" fill="#6857D0"/>
</svg>
