<svg width="35" height="36" viewBox="0 0 35 36" fill="none" xmlns="http://www.w3.org/2000/svg">
<g clip-path="url(#clip0_245_1761)">
<path fill-rule="evenodd" clip-rule="evenodd" d="M7.17823 4.97063H27.2794C28.8653 4.97063 30.151 6.25628 30.151 7.84222V27.9433C30.151 29.5293 28.8653 30.8149 27.2794 30.8149H7.17823C5.59229 30.8149 4.30664 29.5293 4.30664 27.9433V7.84222C4.30664 6.25628 5.59229 4.97063 7.17823 4.97063ZM11.4856 26.5076C11.8821 26.5076 12.2035 26.1861 12.2035 25.7897V15.7391C12.2035 15.3427 11.8821 15.0212 11.4856 15.0212H9.33192C8.93544 15.0212 8.61403 15.3427 8.61403 15.7391V25.7897C8.61403 26.1861 8.93544 26.5076 9.33192 26.5076H11.4856ZM10.4088 13.5854C9.21931 13.5854 8.25508 12.6212 8.25508 11.4317C8.25508 10.2422 9.21931 9.27801 10.4088 9.27801C11.5982 9.27801 12.5625 10.2422 12.5625 11.4317C12.5625 12.6212 11.5982 13.5854 10.4088 13.5854ZM25.1257 26.5076C25.5221 26.5076 25.8436 26.1861 25.8436 25.7897V19.185C25.8902 16.9032 24.2033 14.9559 21.9382 14.6766C20.3545 14.5319 18.8201 15.2716 17.9467 16.6006V15.7391C17.9467 15.3427 17.6252 15.0212 17.2288 15.0212H15.0751C14.6787 15.0212 14.3572 15.3427 14.3572 15.7391V25.7897C14.3572 26.1861 14.6787 26.5076 15.0751 26.5076H17.2288C17.6252 26.5076 17.9467 26.1861 17.9467 25.7897V20.4054C17.9467 19.216 18.911 18.2517 20.1004 18.2517C21.2898 18.2517 22.2541 19.216 22.2541 20.4054V25.7897C22.2541 26.1861 22.5756 26.5076 22.972 26.5076H25.1257Z" fill="#0E0F0C"/>
</g>
<defs>
<clipPath id="clip0_245_1761">
<rect width="34.4591" height="34.4591" fill="white" transform="translate(0 0.662109)"/>
</clipPath>
</defs>
</svg>
