<svg width="29" height="29" viewBox="0 0 29 29" fill="none" xmlns="http://www.w3.org/2000/svg">
<path d="M22.6115 0.436035H6.9216C3.39231 0.436035 0.53125 3.29709 0.53125 6.82639V22.5163C0.53125 26.0456 3.39231 28.9066 6.9216 28.9066H22.6115C26.1408 28.9066 29.0018 26.0456 29.0018 22.5163V6.82639C29.0018 3.29709 26.1408 0.436035 22.6115 0.436035Z" fill="#3B71ED"/>
<path d="M11.4415 12.7511H9.1634V19.4226H11.4415V12.7511Z" fill="white"/>
<path d="M11.0585 9.63767C10.8414 9.5062 10.5862 9.43604 10.3252 9.43604C10.1511 9.43603 9.97864 9.46728 9.81784 9.52797C9.65703 9.58867 9.51103 9.67762 9.38824 9.78971C9.26544 9.9018 9.16827 10.0348 9.10232 10.1811C9.03637 10.3274 9.00293 10.4841 9.00393 10.6421C9.00543 10.879 9.0842 11.1102 9.23029 11.3065C9.37639 11.5028 9.58327 11.6554 9.82484 11.7451C10.0664 11.8349 10.3318 11.8576 10.5876 11.8106C10.8434 11.7635 11.0782 11.6488 11.2622 11.4808C11.4462 11.3128 11.5713 11.0991 11.6217 10.8667C11.6721 10.6342 11.6455 10.3935 11.5452 10.1748C11.445 9.95603 11.2756 9.76914 11.0585 9.63767Z" fill="white"/>
<path d="M15.0983 12.7508H12.9038L12.8962 19.436H15.1743V16.1348C15.1743 15.2664 15.3565 14.4255 16.5412 14.4255C17.7258 14.4255 17.7258 15.4249 17.7258 16.1968V19.4223H20.0039V15.7626C20.0039 13.9638 19.5407 12.5854 17.2626 12.5854C16.8284 12.5699 16.3977 12.6618 16.0165 12.8512C15.6354 13.0405 15.318 13.3203 15.0983 13.6605V12.7508Z" fill="white"/>
</svg>
