<svg width="90" height="90" viewBox="0 0 90 90" fill="none" xmlns="http://www.w3.org/2000/svg">
<circle cx="45" cy="45" r="45" fill="#DBD3D5"/>
<path d="M39.2086 51.459L51.4586 39.209M43.292 33.084L44.2372 31.9896C46.1519 30.0752 48.7487 28.9998 51.4563 29C54.1639 29.0002 56.7605 30.076 58.6749 31.9906C60.5893 33.9053 61.6647 36.5021 61.6645 39.2097C61.6643 41.9173 60.5886 44.5139 58.6739 46.4283L57.5836 47.3756M47.3753 57.584L46.5647 58.6742C44.6277 60.5897 42.0134 61.664 39.2893 61.664C36.5651 61.664 33.9508 60.5897 32.0138 58.6742C31.059 57.7301 30.301 56.606 29.7837 55.367C29.2664 54.128 29 52.7986 29 51.4559C29 50.1132 29.2664 48.7838 29.7837 47.5448C30.301 46.3058 31.059 45.1816 32.0138 44.2376L33.0836 43.2923" stroke="#EE2A52" stroke-width="4.08333" stroke-linecap="round" stroke-linejoin="round"/>
</svg>
