<svg width="29" height="29" viewBox="0 0 29 29" fill="none" xmlns="http://www.w3.org/2000/svg">
<g clip-path="url(#clip0_1_553)">
<path d="M1 13.459C1 7.81108 1 4.98712 2.64682 3.14848C2.80472 2.97219 2.97219 2.80472 3.14848 2.64682C4.98712 1 7.81107 1 13.459 1H15.4117C21.0597 1 23.8836 1 25.7223 2.64682C25.8986 2.80472 26.066 2.97219 26.2239 3.14848C27.8708 4.98712 27.8708 7.81107 27.8708 13.459V15.4117C27.8708 21.0597 27.8708 23.8836 26.2239 25.7223C26.066 25.8986 25.8986 26.066 25.7223 26.2239C23.8836 27.8708 21.0597 27.8708 15.4118 27.8708H1V13.459Z" fill="white"/>
<circle cx="2.49199" cy="26.7002" r="8.5938" fill="black"/>
<rect y="0.550443" width="12.8736" height="26.77" rx="6.43679" transform="matrix(0.731217 0.682145 -0.731217 0.682145 18.2599 -15.1253)" fill="#3B71ED" stroke="black" stroke-width="0.80693"/>
<rect y="0.550443" width="12.8736" height="26.77" rx="6.43679" transform="matrix(0.731217 0.682145 -0.731217 0.682145 27.424 -6.17807)" fill="#EE674E" stroke="black" stroke-width="0.80693"/>
<rect y="0.550443" width="12.8736" height="26.77" rx="6.43679" transform="matrix(0.731217 0.682145 -0.731217 0.682145 36.5052 3.08561)" fill="#A888CE" stroke="black" stroke-width="0.80693"/>
</g>
<path d="M0.596535 27.8708V28.2742H1H15.4118H15.4415C18.2403 28.2742 20.3788 28.2742 22.0457 28.0652C23.7285 27.8542 24.9864 27.4247 25.9915 26.5245C26.1788 26.3567 26.3567 26.1788 26.5245 25.9915C27.4247 24.9864 27.8542 23.7284 28.0652 22.0457C28.2742 20.3788 28.2742 18.2403 28.2742 15.4415V15.4117V13.459V13.4293C28.2742 10.6304 28.2742 8.49191 28.0652 6.82506C27.8542 5.1423 27.4247 3.88438 26.5245 2.8793C26.3567 2.69199 26.1788 2.51405 25.9915 2.34628C24.9864 1.44605 23.7284 1.01651 22.0457 0.805522C20.3788 0.596531 18.2403 0.596533 15.4415 0.596535H15.4117H13.459H13.4293C10.6304 0.596533 8.49191 0.596531 6.82506 0.805522C5.1423 1.01651 3.88438 1.44605 2.8793 2.34628C2.69199 2.51405 2.51405 2.69199 2.34628 2.8793C1.44605 3.88438 1.01651 5.1423 0.805522 6.82506C0.596531 8.49191 0.596533 10.6305 0.596535 13.4293V13.459V27.8708Z" stroke="black" stroke-width="0.80693"/>
<defs>
<clipPath id="clip0_1_553">
<path d="M1 13.459C1 7.81108 1 4.98712 2.64682 3.14848C2.80472 2.97219 2.97219 2.80472 3.14848 2.64682C4.98712 1 7.81107 1 13.459 1H15.4117C21.0597 1 23.8836 1 25.7223 2.64682C25.8986 2.80472 26.066 2.97219 26.2239 3.14848C27.8708 4.98712 27.8708 7.81107 27.8708 13.459V15.4117C27.8708 21.0597 27.8708 23.8836 26.2239 25.7223C26.066 25.8986 25.8986 26.066 25.7223 26.2239C23.8836 27.8708 21.0597 27.8708 15.4118 27.8708H1V13.459Z" fill="white"/>
</clipPath>
</defs>
</svg>
