<svg width="38" height="38" viewBox="0 0 38 38" fill="none" xmlns="http://www.w3.org/2000/svg">
<path d="M33.25 12.2705H4.75C4.10083 12.2705 3.5625 11.7322 3.5625 11.083C3.5625 10.4338 4.10083 9.89551 4.75 9.89551H33.25C33.8992 9.89551 34.4375 10.4338 34.4375 11.083C34.4375 11.7322 33.8992 12.2705 33.25 12.2705Z" fill="#292D32"/>
<path d="M33.25 20.1875H4.75C4.10083 20.1875 3.5625 19.6492 3.5625 19C3.5625 18.3508 4.10083 17.8125 4.75 17.8125H33.25C33.8992 17.8125 34.4375 18.3508 34.4375 19C34.4375 19.6492 33.8992 20.1875 33.25 20.1875Z" fill="#292D32"/>
<path d="M33.25 28.1045H4.75C4.10083 28.1045 3.5625 27.5662 3.5625 26.917C3.5625 26.2678 4.10083 25.7295 4.75 25.7295H33.25C33.8992 25.7295 34.4375 26.2678 34.4375 26.917C34.4375 27.5662 33.8992 28.1045 33.25 28.1045Z" fill="#292D32"/>
</svg>
