<svg width="23" height="22" viewBox="0 0 23 22" fill="none" xmlns="http://www.w3.org/2000/svg">
<path d="M10.0527 9.1539C10.0527 9.64024 10.1878 9.71229 10.494 9.82037L10.9534 9.98248V8.45142H10.6832C10.3409 8.45142 10.0527 8.76663 10.0527 9.1539Z" fill="#FC0101"/>
<path d="M12.3042 13.4048H12.5744C12.9256 13.4048 13.2048 13.0896 13.2048 12.7024C13.2048 12.216 13.0697 12.144 12.7635 12.0359L12.3042 11.8738V13.4048Z" fill="#FC0101"/>
<path d="M18.4555 5.05605L16.6093 6.90233C16.4742 7.03743 16.3031 7.10047 16.1319 7.10047C15.9608 7.10047 15.7897 7.03743 15.6546 6.90233C15.3934 6.64115 15.3934 6.20885 15.6546 5.94767L17.5009 4.10139C15.9158 2.75045 13.8714 1.92188 11.6288 1.92188C6.65736 1.92188 2.62256 5.95668 2.62256 10.9281C2.62256 15.8996 6.65736 19.9344 11.6288 19.9344C16.6003 19.9344 20.6351 15.8996 20.6351 10.9281C20.6351 8.68557 19.8065 6.64115 18.4555 5.05605ZM13.2049 10.766C13.7813 10.9732 14.5558 11.3874 14.5558 12.7114C14.5558 13.8371 13.6642 14.7648 12.5745 14.7648H12.3043V14.9899C12.3043 15.3592 11.9981 15.6654 11.6288 15.6654C11.2596 15.6654 10.9533 15.3592 10.9533 14.9899V14.7648H10.8813C9.68346 14.7648 8.70178 13.7561 8.70178 12.5132C8.70178 12.135 9.00799 11.8288 9.37725 11.8288C9.7465 11.8288 10.0527 12.135 10.0527 12.5042C10.0527 12.9996 10.422 13.4048 10.8813 13.4048H10.9533V11.4055L10.0527 11.0902C9.47632 10.8831 8.70178 10.4688 8.70178 9.14489C8.70178 8.01911 9.5934 7.09146 10.6832 7.09146H10.9533V6.87531C10.9533 6.50606 11.2596 6.19984 11.6288 6.19984C11.9981 6.19984 12.3043 6.50606 12.3043 6.87531V7.10047H12.3763C13.5742 7.10047 14.5558 8.10917 14.5558 9.35203C14.5558 9.72129 14.2496 10.0275 13.8804 10.0275C13.5111 10.0275 13.2049 9.72129 13.2049 9.35203C13.2049 8.85669 12.8356 8.45141 12.3763 8.45141H12.3043V10.4508L13.2049 10.766Z" fill="#FC0101"/>
<path d="M21.2565 1.66063C21.1844 1.49851 21.0583 1.36342 20.8872 1.29137C20.8061 1.26435 20.7251 1.24634 20.635 1.24634H17.0325C16.6633 1.24634 16.3571 1.55255 16.3571 1.92181C16.3571 2.29106 16.6633 2.59728 17.0325 2.59728H19.0049L17.5008 4.10132C17.8431 4.39853 18.1583 4.71374 18.4555 5.05598L19.9596 3.55194V5.52431C19.9596 5.89356 20.2658 6.19978 20.635 6.19978C21.0043 6.19978 21.3105 5.89356 21.3105 5.52431V1.92181C21.3105 1.83174 21.2925 1.75069 21.2565 1.66063Z" fill="#FC0101"/>
</svg>
