<svg width="52" height="52" viewBox="0 0 52 52" fill="none" xmlns="http://www.w3.org/2000/svg">
<path d="M25.7507 50.1991C38.9767 50.1991 49.6986 39.4772 49.6986 26.2511C49.6986 13.0251 38.9767 2.30322 25.7507 2.30322C12.5246 2.30322 1.80273 13.0251 1.80273 26.2511C1.80273 39.4772 12.5246 50.1991 25.7507 50.1991Z" stroke="#6857D0" stroke-width="2.75" stroke-linecap="round"/>
<path d="M16.125 35.875C17.1939 35.875 18.6614 35.875 20.3193 35.875C22.0869 35.875 23.9146 35.875 25.75 35.875C27.6389 35.875 29.5076 35.875 31.1807 35.875C32.8412 35.875 34.3036 35.875 35.375 35.875" stroke="#6857D0" stroke-width="2.75" stroke-linecap="round"/>
<path d="M18.1888 23.7292C19.581 23.7292 20.7096 22.6006 20.7096 21.2083C20.7096 19.8161 19.581 18.6875 18.1888 18.6875C16.7966 18.6875 15.668 19.8161 15.668 21.2083C15.668 22.6006 16.7966 23.7292 18.1888 23.7292Z" fill="#6857D0" stroke="#6857D0" stroke-width="1.375" stroke-linecap="round"/>
<path d="M33.3138 23.7292C34.706 23.7292 35.8346 22.6006 35.8346 21.2083C35.8346 19.8161 34.706 18.6875 33.3138 18.6875C31.9216 18.6875 30.793 19.8161 30.793 21.2083C30.793 22.6006 31.9216 23.7292 33.3138 23.7292Z" fill="#6857D0" stroke="#6857D0" stroke-width="1.375" stroke-linecap="round"/>
</svg>
