<svg width="52" height="52" viewBox="0 0 52 52" fill="none" xmlns="http://www.w3.org/2000/svg">
<path d="M25.7507 50.1991C38.9767 50.1991 49.6986 39.4772 49.6986 26.2511C49.6986 13.0251 38.9767 2.30322 25.7507 2.30322C12.5246 2.30322 1.80273 13.0251 1.80273 26.2511C1.80273 39.4772 12.5246 50.1991 25.7507 50.1991Z" stroke="#030609" stroke-width="2.75" stroke-linecap="round"/>
<path d="M16.125 35.8752C17.1939 35.8752 18.6614 35.8752 20.3193 35.8752C22.0869 35.8752 23.9146 35.8752 25.75 35.8752C27.6389 35.8752 29.5076 35.8752 31.1807 35.8752C32.8412 35.8752 34.3036 35.8752 35.375 35.8752" stroke="#030609" stroke-width="2.75" stroke-linecap="round"/>
<path d="M18.1888 23.7294C19.581 23.7294 20.7096 22.6008 20.7096 21.2086C20.7096 19.8164 19.581 18.6877 18.1888 18.6877C16.7966 18.6877 15.668 19.8164 15.668 21.2086C15.668 22.6008 16.7966 23.7294 18.1888 23.7294Z" fill="#030609" stroke="#030609" stroke-width="1.375" stroke-linecap="round"/>
<path d="M33.3138 23.7294C34.706 23.7294 35.8346 22.6008 35.8346 21.2086C35.8346 19.8164 34.706 18.6877 33.3138 18.6877C31.9216 18.6877 30.793 19.8164 30.793 21.2086C30.793 22.6008 31.9216 23.7294 33.3138 23.7294Z" fill="#030609" stroke="#030609" stroke-width="1.375" stroke-linecap="round"/>
</svg>
