<svg width="16" height="16" viewBox="0 0 16 16" fill="none" xmlns="http://www.w3.org/2000/svg">
<path d="M11.7731 15.1133C11.4198 15.1133 10.9664 15 10.3998 14.6667L8.40642 13.4867C8.19975 13.3667 7.79975 13.3667 7.59975 13.4867L5.59975 14.6667C4.41975 15.3667 3.72642 15.0867 3.41309 14.86C3.10642 14.6333 2.62642 14.0533 2.93975 12.72L3.41309 10.6733C3.46642 10.46 3.35975 10.0933 3.19975 9.93334L1.54642 8.28001C0.719753 7.45334 0.78642 6.74667 0.899753 6.40001C1.01309 6.05334 1.37309 5.44 2.51975 5.24667L4.64642 4.89334C4.84642 4.86 5.13309 4.64667 5.21975 4.46667L6.39975 2.11334C6.93309 1.04 7.63309 0.880005 7.99975 0.880005C8.36642 0.880005 9.06642 1.04 9.59975 2.11334L10.7731 4.46C10.8664 4.64 11.1531 4.85334 11.3531 4.88667L13.4798 5.24001C14.6331 5.43334 14.9931 6.04667 15.0998 6.39334C15.2064 6.74001 15.2731 7.44667 14.4531 8.27334L12.7998 9.93334C12.6398 10.0933 12.5398 10.4533 12.5864 10.6733L13.0598 12.72C13.3664 14.0533 12.8931 14.6333 12.5864 14.86C12.4198 14.98 12.1531 15.1133 11.7731 15.1133ZM7.99975 12.3933C8.32642 12.3933 8.65309 12.4733 8.91309 12.6267L10.9064 13.8067C11.4864 14.1533 11.8531 14.1533 11.9931 14.0533C12.1331 13.9533 12.2331 13.6 12.0864 12.9467L11.6131 10.9C11.4864 10.3467 11.6931 9.63334 12.0931 9.22667L13.7464 7.57334C14.0731 7.24667 14.2198 6.92667 14.1531 6.70667C14.0798 6.48667 13.7731 6.30667 13.3198 6.23334L11.1931 5.88C10.6798 5.79334 10.1198 5.38 9.88642 4.91334L8.71309 2.56667C8.49975 2.14 8.23309 1.88667 7.99975 1.88667C7.76642 1.88667 7.49975 2.14 7.29309 2.56667L6.11309 4.91334C5.87975 5.38 5.31975 5.79334 4.80642 5.88L2.68642 6.23334C2.23309 6.30667 1.92642 6.48667 1.85309 6.70667C1.77975 6.92667 1.93309 7.25334 2.25975 7.57334L3.91309 9.22667C4.31309 9.62667 4.51975 10.3467 4.39309 10.9L3.91975 12.9467C3.76642 13.6067 3.87309 13.9533 4.01309 14.0533C4.15309 14.1533 4.51309 14.1467 5.09975 13.8067L7.09309 12.6267C7.34642 12.4733 7.67309 12.3933 7.99975 12.3933Z" fill="#7A7A7A"/>
</svg>
