<svg width="20" height="20" viewBox="0 0 20 20" fill="none" xmlns="http://www.w3.org/2000/svg">
<g clip-path="url(#clip0_453_1356)">
<path d="M20 9.60191C19.605 9.98491 19.348 10.3619 19.002 10.5419C18.226 10.9459 17.384 11.2089 16.608 11.6089C15.835 12.0099 15.065 12.4529 14.368 12.9849C13.4069 13.7056 12.7191 14.7312 12.417 15.8939C12.127 16.9789 11.895 18.0809 11.559 19.1489C11.451 19.4939 11.129 19.9469 10.848 19.9949C10.574 20.0439 10.143 19.7119 9.93505 19.4219C9.65705 19.0379 9.49705 18.5439 9.33805 18.0779C9.16205 17.5699 9.03104 17.0409 8.89804 16.5189C8.39804 14.5429 7.15205 13.3919 5.31605 12.9359C4.05105 12.6219 2.77205 12.3759 1.49605 12.0999C1.22905 12.0409 0.900045 12.0619 0.704045 11.9029C0.417045 11.6679 0.110045 11.3399 0.0220451 10.9909C-0.0979549 10.5209 0.290045 10.2609 0.685045 10.1029C1.79005 9.66391 2.88304 9.18691 3.99804 8.78591C4.98305 8.43391 5.70405 7.79491 6.24205 6.86591C7.11005 5.36591 7.43905 3.69991 7.64205 1.98991C7.69405 1.53391 7.69105 1.05691 7.83105 0.631908C7.91904 0.365908 8.20604 0.0479082 8.44704 0.00690821C8.69504 -0.0380918 9.05704 0.151908 9.25004 0.362908C9.45504 0.586908 9.52404 0.949908 9.64104 1.25691C10.15 2.56691 10.642 3.88691 11.171 5.18991C11.721 6.54691 12.701 7.41791 14.057 7.73291C15.401 8.04291 16.767 8.26491 18.121 8.53391C18.506 8.60991 18.914 8.66191 19.263 8.83091C19.507 8.94891 19.677 9.25291 20 9.60091V9.60191Z" fill="#A4DD69"/>
</g>
<defs>
<clipPath id="clip0_453_1356">
<rect width="20" height="20" fill="white"/>
</clipPath>
</defs>
</svg>
