<svg width="150" height="31" viewBox="0 0 150 31" fill="none" xmlns="http://www.w3.org/2000/svg">
<g clip-path="url(#clip0_1_153)">
<g clip-path="url(#clip1_1_153)">
<g clip-path="url(#clip2_1_153)">
<mask id="mask0_1_153" style="mask-type:alpha" maskUnits="userSpaceOnUse" x="0" y="2" width="27" height="27">
<path fill-rule="evenodd" clip-rule="evenodd" d="M19.6206 5.65926C15.2649 1.12011 8.0433 0.971061 3.50415 5.32699C-1.03501 9.6827 -1.18383 16.9043 3.17188 21.4434L6.61283 25.0291C10.9685 29.5683 18.1901 29.7173 22.7293 25.3616C27.2684 21.0057 27.4175 13.7843 23.0616 9.24499L19.6206 5.65926Z" fill="#FEEF7C"/>
</mask>
<g mask="url(#mask0_1_153)">
<path fill-rule="evenodd" clip-rule="evenodd" d="M20.4016 8.2342C22.6034 10.0122 23.6798 12.3089 23.8799 15.088C23.7126 20.4522 21.1817 23.8999 16.8341 25.3785C11.8112 26.8919 8.6283 25.6673 5.5484 22.5292L5.03516 25.7197C10.3913 29.2394 18.1702 30.9888 23.0955 26.1314C28.154 21.1428 28.2181 12.4782 22.1945 7.33496L20.4016 8.2342Z" fill="#FEEF7C"/>
</g>
<mask id="mask1_1_153" style="mask-type:alpha" maskUnits="userSpaceOnUse" x="0" y="2" width="27" height="28">
<path fill-rule="evenodd" clip-rule="evenodd" d="M20.2419 6.2806C15.886 1.74145 8.66462 1.5924 4.12524 5.94833C-0.413912 10.304 -0.562737 17.5256 3.79297 22.0648L7.23392 25.6505C11.5896 30.1896 18.8112 30.3387 23.3504 25.983C27.8895 21.6273 28.0386 14.4057 23.6826 9.86656L20.2419 6.2806Z" fill="#5CD3CB"/>
</mask>
<g mask="url(#mask1_1_153)">
<path fill-rule="evenodd" clip-rule="evenodd" d="M4.12883 23.609L5.50624 22.4061C2.36227 17.9508 2.23053 11.4281 6.53318 7.83724C9.72257 5.17548 16.051 3.79582 21.1139 8.25359L21.8981 6.87505C17.7584 2.27925 11.5073 1.70036 7.49941 3.27696C-2.3356 7.14572 -0.820155 20.1009 4.12883 23.609Z" fill="#5CD3CB"/>
</g>
<path d="M2.03125 15.69C2.03125 21.9969 7.14479 27.1104 13.4516 27.1104C19.7596 27.1104 24.8729 21.9969 24.8729 15.69C24.8729 9.38209 19.7596 4.26855 13.4516 4.26855C7.14479 4.26855 2.03125 9.38209 2.03125 15.69ZM9.98033 17.7556C10.1004 17.3757 9.96684 16.9616 9.64761 16.723C8.80232 16.0918 7.1358 14.8472 6.01602 14.0109C5.85438 13.8902 5.78829 13.6795 5.85191 13.488C5.91553 13.2965 6.09448 13.1674 6.29636 13.1674H10.6366C11.0405 13.1674 11.3989 12.9084 11.5259 12.5251C11.8681 11.4917 12.5481 9.43784 12.9991 8.07639C13.0625 7.88507 13.2412 7.75558 13.4429 7.75536C13.6445 7.75513 13.8239 7.88395 13.8878 8.07504C14.3435 9.43762 15.0316 11.4948 15.3771 12.5278C15.5051 12.9098 15.8627 13.1674 16.2656 13.1674C17.2923 13.1674 19.2702 13.1674 20.6168 13.1674C20.818 13.1674 20.997 13.296 21.0608 13.4871C21.1246 13.6782 21.0594 13.8886 20.8985 14.0098C19.7821 14.8508 18.1147 16.1066 17.2712 16.7419C16.9537 16.9809 16.8218 17.3943 16.9416 17.7729C17.2678 18.803 17.922 20.8688 18.364 22.2642C18.4256 22.4591 18.3536 22.6717 18.1861 22.7891C18.0187 22.9065 17.7945 22.9017 17.6322 22.7772C16.5106 21.9162 14.872 20.6583 14.0139 19.9999C13.6764 19.7409 13.207 19.7416 12.8705 20.0019C12.0207 20.6588 10.4043 21.9087 9.29218 22.7686C9.13032 22.8939 8.90574 22.8995 8.7378 22.7821C8.56987 22.665 8.49748 22.4523 8.55908 22.2572C9.00105 20.8578 9.65435 18.7884 9.98033 17.7556Z" fill="black"/>
<path d="M39.3826 15.1594C41.6704 15.1594 43.3278 13.895 43.3278 11.8124V11.7628C43.3278 9.75469 41.8805 8.56466 39.4059 8.56466H34.667V15.1594H39.3826ZM32.9395 7.7961C32.9395 7.27546 33.3363 6.85399 33.8032 6.85399H39.546C41.4369 6.85399 42.931 7.44901 43.9115 8.49028C44.6585 9.28364 45.102 10.424 45.102 11.6885V11.738C45.102 14.4156 43.3979 15.9775 41.0167 16.4486L44.8219 21.655C44.9853 21.8533 45.102 22.0764 45.102 22.3243C45.102 22.8202 44.6585 23.2417 44.2149 23.2417C43.8648 23.2417 43.608 23.0433 43.3979 22.7458L39.0791 16.7957H34.667V22.2996C34.667 22.8202 34.2701 23.2417 33.8032 23.2417C33.3363 23.2417 32.9395 22.8202 32.9395 22.2996C32.9395 22.3244 32.9395 7.7961 32.9395 7.7961ZM48.5337 22.2004V7.7961C48.5337 7.27546 48.9306 6.85399 49.3975 6.85399H58.9221C59.3656 6.85399 59.7158 7.22588 59.7158 7.69693C59.7158 8.16798 59.3656 8.53987 58.9221 8.53987H50.2846V14.0933H57.9416C58.3852 14.0933 58.7353 14.49 58.7353 14.9362C58.7353 15.4073 58.3852 15.7792 57.9416 15.7792H50.2846V21.4814H59.0388C59.4824 21.4814 59.8325 21.8533 59.8325 22.3243C59.8325 22.7954 59.4824 23.1673 59.0388 23.1673H49.3975C48.9306 23.1425 48.5337 22.721 48.5337 22.2004ZM67.9098 22.5475L62.0036 8.06881C61.9336 7.92006 61.9102 7.82089 61.9102 7.64735C61.9102 7.17629 62.3071 6.73003 62.7973 6.73003C63.2409 6.73003 63.5443 7.02754 63.6844 7.42421L68.9837 20.9112L74.3063 7.37463C74.4697 7.05233 74.7731 6.73003 75.17 6.73003C75.6602 6.73003 76.0338 7.1515 76.0338 7.62255C76.0338 7.77131 76.0104 7.87047 75.9637 7.99444L70.0342 22.5475C69.8474 23.0185 69.5206 23.316 69.0304 23.316H68.937C68.4234 23.316 68.0966 23.0185 67.9098 22.5475ZM79.2086 7.67214C79.2086 7.1515 79.6055 6.73003 80.0724 6.73003C80.5626 6.73003 80.9361 7.1515 80.9361 7.67214V22.3243C80.9361 22.845 80.5393 23.2665 80.0724 23.2665C79.6055 23.2665 79.2086 22.845 79.2086 22.3243V7.67214ZM85.2082 22.2004V7.7961C85.2082 7.27546 85.6051 6.85399 86.072 6.85399H95.5966C96.0402 6.85399 96.3903 7.22588 96.3903 7.69693C96.3903 8.16798 96.0402 8.53987 95.5966 8.53987H86.9591V14.0933H94.6161C95.0597 14.0933 95.4099 14.49 95.4099 14.9362C95.4099 15.4073 95.0597 15.7792 94.6161 15.7792H86.9591V21.4814H95.7133C96.1569 21.4814 96.5071 21.8533 96.5071 22.3243C96.5071 22.7954 96.1569 23.1673 95.7133 23.1673H86.072C85.6051 23.1425 85.2082 22.721 85.2082 22.2004ZM98.7248 8.0936C98.6781 7.94485 98.6314 7.82089 98.6314 7.67214C98.6314 7.17629 99.0516 6.75482 99.5185 6.75482C99.9621 6.75482 100.289 7.10192 100.406 7.52338L104.631 20.4401L108.646 7.4738C108.786 7.05233 109.043 6.75482 109.51 6.75482H109.627C110.07 6.75482 110.35 7.05233 110.491 7.4738L114.506 20.4401L118.755 7.4738C118.895 7.05233 119.175 6.75482 119.595 6.75482C120.062 6.75482 120.482 7.20108 120.482 7.67214C120.482 7.82089 120.412 7.96964 120.365 8.1184L115.463 22.5723C115.3 23.0433 114.996 23.3656 114.576 23.3656H114.436C113.992 23.3656 113.689 23.0433 113.549 22.5723L109.557 10.077L105.588 22.5723C105.425 23.0433 105.121 23.3656 104.701 23.3656H104.561C104.117 23.3656 103.814 23.0681 103.674 22.5723L98.7248 8.0936ZM122.606 21.1839C122.42 21.0352 122.28 20.7872 122.28 20.4897C122.28 19.9691 122.653 19.5724 123.12 19.5724C123.33 19.5724 123.54 19.6716 123.634 19.7707C125.081 21.0847 126.528 21.7045 128.466 21.7045C130.52 21.7045 131.874 20.5393 131.874 18.9278V18.903C131.874 17.3907 131.104 16.523 127.882 15.804C124.357 14.9858 122.747 13.771 122.747 11.1182V11.0686C122.747 8.51507 124.871 6.63086 127.789 6.63086C129.797 6.63086 131.267 7.17629 132.668 8.24236C132.855 8.39111 133.042 8.63904 133.042 8.98613C133.042 9.48197 132.668 9.87865 132.201 9.87865C132.014 9.87865 131.851 9.82906 131.688 9.7051C130.404 8.71341 129.143 8.29194 127.719 8.29194C125.735 8.29194 124.451 9.45718 124.451 10.9199V10.9695C124.451 12.5066 125.244 13.3743 128.606 14.1429C132.014 14.9362 133.602 16.2502 133.602 18.7543V18.8038C133.602 21.5806 131.407 23.4152 128.373 23.4152C126.155 23.3656 124.311 22.6219 122.606 21.1839ZM136.216 21.3079C136.543 21.3079 136.8 21.5558 136.8 21.9277V22.1756C136.8 22.5227 136.543 22.7954 136.216 22.7954C135.866 22.7954 135.633 22.5227 135.633 22.1756V21.9277C135.633 21.5558 135.866 21.3079 136.216 21.3079ZM138.854 16.4486C138.854 16.1759 139.064 15.9527 139.321 15.9527C139.601 15.9527 139.788 16.1759 139.788 16.4486V22.2748C139.788 22.5723 139.601 22.7706 139.321 22.7706C139.041 22.7706 138.854 22.5475 138.854 22.2748V16.4486ZM138.761 13.895C138.761 13.5727 139.018 13.3495 139.321 13.3495C139.648 13.3495 139.882 13.5479 139.882 13.895V14.0685C139.882 14.3908 139.648 14.5892 139.321 14.5892C139.018 14.5892 138.761 14.366 138.761 14.0685V13.895ZM147.235 19.3989V19.3741C147.235 17.9361 146.208 16.7461 144.877 16.7461C143.5 16.7461 142.566 17.9361 142.566 19.3493V19.3741C142.566 20.812 143.57 21.9773 144.901 21.9773C146.278 21.9773 147.235 20.812 147.235 19.3989ZM141.586 19.3989V19.3741C141.586 17.4651 142.986 15.8536 144.901 15.8536C146.792 15.8536 148.192 17.4403 148.192 19.3493V19.3741C148.192 21.2831 146.792 22.8946 144.877 22.8946C142.986 22.8946 141.586 21.3079 141.586 19.3989Z" fill="black"/>
</g>
</g>
</g>
<defs>
<clipPath id="clip0_1_153">
<rect width="150" height="30" fill="white" transform="translate(0 0.155029)"/>
</clipPath>
<clipPath id="clip1_1_153">
<rect width="150" height="30" fill="white" transform="translate(0 0.155029)"/>
</clipPath>
<clipPath id="clip2_1_153">
<rect width="150" height="30" fill="white" transform="translate(0 0.155029)"/>
</clipPath>
</defs>
</svg>
