<svg width="90" height="90" viewBox="0 0 90 90" fill="none" xmlns="http://www.w3.org/2000/svg">
<circle opacity="0.2" cx="45" cy="45" r="45" fill="#FAB33F"/>
<g clip-path="url(#clip0_1_207)">
<path d="M64.18 25.0047C56.3717 24.8647 47.4667 28.9464 41.83 35.278C36.4433 35.3797 31.1983 37.588 27.3367 41.4497C27.1117 41.6714 27.0317 42.003 27.13 42.303C27.23 42.6047 27.49 42.823 27.8033 42.868L34.2267 43.788L33.4333 44.6764C33.1383 45.0064 33.1533 45.508 33.4667 45.8214L44.1784 56.533C44.34 56.6947 44.5534 56.7764 44.7684 56.7764C44.9667 56.7764 45.165 56.7064 45.3234 56.5647L46.2117 55.7714L47.1317 62.1947C47.1767 62.508 47.4234 62.738 47.7217 62.838C47.7984 62.863 47.8784 62.8747 47.96 62.8747C48.1967 62.8747 48.4384 62.7714 48.605 62.6064C52.4134 58.798 54.6217 53.553 54.7234 48.1664C61.0617 42.518 65.1767 33.6164 64.995 25.818C64.9833 25.3747 64.625 25.0164 64.18 25.0047ZM56.5 39.3914C55.6884 40.203 54.6217 40.6097 53.5534 40.6097C52.485 40.6097 51.4184 40.203 50.6067 39.3914C48.9834 37.7664 48.9834 35.123 50.6067 33.498C52.2317 31.873 54.875 31.873 56.5 33.498C58.125 35.123 58.125 37.768 56.5 39.3914Z" fill="#FCC101"/>
<path d="M29.54 53.1758C27.7567 54.9591 25.3083 63.0158 25.035 63.9275C24.9467 64.2208 25.0283 64.5391 25.2433 64.7558C25.4033 64.9158 25.615 65.0008 25.8333 65.0008C25.9133 65.0008 25.9933 64.9891 26.0733 64.9658C26.985 64.6925 35.0417 62.2441 36.825 60.4608C38.8333 58.4525 38.8333 55.1841 36.825 53.1758C34.815 51.1675 31.5483 51.1691 29.54 53.1758Z" fill="#FCC101"/>
</g>
<defs>
<clipPath id="clip0_1_207">
<rect width="40" height="40" fill="white" transform="translate(25 25)"/>
</clipPath>
</defs>
</svg>
