<svg width="90" height="90" viewBox="0 0 90 90" fill="none" xmlns="http://www.w3.org/2000/svg">
<circle opacity="0.2" cx="45" cy="45" r="45" fill="#4D46C7"/>
<g clip-path="url(#clip0_1_223)">
<path d="M56.2646 33.7355C54.0185 31.4898 51.0672 30.3662 48.117 30.3662C45.1657 30.3662 42.2158 31.4891 39.969 33.7355C35.4765 38.2284 35.4765 45.5382 39.969 50.0308C44.4619 54.5237 51.772 54.5237 56.2646 50.0308C60.7571 45.5382 60.7571 38.2284 56.2646 33.7355Z" fill="#7C4FCF"/>
<path d="M60.0549 29.9451C56.8665 26.7563 52.6266 25 48.1171 25C43.6075 25 39.3677 26.7563 36.1789 29.9451C32.9901 33.1339 31.2338 37.3734 31.2338 41.8832C31.2338 46.3928 32.9898 50.6323 36.1789 53.8211C39.3677 57.0099 43.6075 58.7662 48.1171 58.7662C52.6266 58.7662 56.8665 57.0102 60.0549 53.8211C63.2437 50.6323 65 46.3928 65 41.8832C65 37.3737 63.2437 33.1339 60.0549 29.9451ZM57.2144 50.9805C54.7061 53.4885 51.4114 54.7427 48.1171 54.7427C44.8224 54.7427 41.5277 53.4885 39.0195 50.9805C34.0033 45.9641 34.0033 37.8021 39.0195 32.7859C44.0359 27.7698 52.1979 27.7695 57.2144 32.7859C62.2305 37.8021 62.2305 45.9641 57.2144 50.9805Z" fill="#7C4FCF"/>
<path d="M32.6196 52.9321L25.9122 59.6051C25.3241 60.1935 25 60.9756 25 61.8076C25 62.6395 25.3241 63.4213 25.9122 64.0097C26.5005 64.5978 27.2824 64.9219 28.1143 64.9219C28.9462 64.9219 29.7284 64.5978 30.3143 64.0118L37.0255 57.3352C36.1716 56.749 35.3647 56.0806 34.6164 55.3323C33.8708 54.5868 33.2043 53.783 32.6196 52.9321Z" fill="#7C4FCF"/>
</g>
<defs>
<clipPath id="clip0_1_223">
<rect width="40" height="40" fill="white" transform="translate(25 25)"/>
</clipPath>
</defs>
</svg>
