<svg width="21" height="20" viewBox="0 0 21 20" fill="none" xmlns="http://www.w3.org/2000/svg">
<g clip-path="url(#clip0_189_860)">
<path d="M10.5 15.5C13.8137 15.5 16.5 12.8137 16.5 9.5C16.5 6.18629 13.8137 3.5 10.5 3.5C7.18629 3.5 4.5 6.18629 4.5 9.5C4.5 12.8137 7.18629 15.5 10.5 15.5Z" stroke="#868685"/>
<path fill-rule="evenodd" clip-rule="evenodd" d="M14.4062 13.404C14.4999 13.3103 14.6271 13.2576 14.7597 13.2576C14.8922 13.2576 15.0194 13.3103 15.1132 13.404L18.6492 16.939C18.7402 17.0333 18.7906 17.1596 18.7895 17.2907C18.7884 17.4218 18.7358 17.5472 18.6431 17.6399C18.5504 17.7326 18.425 17.7852 18.2939 17.7863C18.1628 17.7875 18.0365 17.7371 17.9422 17.646L14.4062 14.111C14.3124 14.0172 14.2598 13.8901 14.2598 13.7575C14.2598 13.6249 14.3124 13.4978 14.4062 13.404Z" fill="#868685"/>
</g>
<defs>
<clipPath id="clip0_189_860">
<rect width="20" height="20" fill="white" transform="translate(1)"/>
</clipPath>
</defs>
</svg>
