<svg width="90" height="90" viewBox="0 0 90 90" fill="none" xmlns="http://www.w3.org/2000/svg">
<circle opacity="0.2" cx="45" cy="45" r="45" fill="#EE2A52"/>
<g clip-path="url(#clip0_1_216)">
<path d="M63.8015 49.3834L60.1248 46.5084C60.1715 46.065 60.2115 45.5467 60.2115 44.9984C60.2115 44.45 60.1731 43.9317 60.1248 43.4884L63.8048 40.6117C64.4882 40.0717 64.6748 39.1134 64.2398 38.3151L60.4165 31.7C60.0081 30.9534 59.1131 30.57 58.2048 30.905L53.8665 32.6466C53.0348 32.0466 52.1631 31.54 51.2615 31.135L50.6015 26.5334C50.4931 25.66 49.7331 25 48.8348 25H41.1682C40.2698 25 39.5116 25.66 39.4048 26.52L38.7432 31.1384C37.8698 31.5317 37.0116 32.0317 36.1432 32.65L31.7932 30.9034C30.9781 30.5884 30.0031 30.9416 29.5981 31.685L25.7698 38.3084C25.3182 39.0717 25.5048 40.0634 26.2032 40.6167L29.8798 43.4917C29.8215 44.0534 29.7932 44.5417 29.7932 45.0001C29.7932 45.4584 29.8216 45.9467 29.8798 46.5101L26.1998 49.3867C25.5165 49.9284 25.3315 50.8867 25.7665 51.6834L29.5898 58.2984C29.9982 59.0434 30.8848 59.43 31.8015 59.0934L36.1398 57.3517C36.9698 57.9501 37.8415 58.4567 38.7432 58.8634L39.4032 63.4634C39.5115 64.34 40.2698 65 41.1698 65H48.8365C49.7348 65 50.4948 64.34 50.6015 63.48L51.2631 58.8634C52.1365 58.4684 52.9931 57.97 53.8631 57.35L58.2131 59.0966C58.4231 59.1783 58.6415 59.22 58.8665 59.22C59.5131 59.22 60.1081 58.8666 60.4081 58.3166L64.2481 51.6666C64.6748 50.8866 64.4881 49.9284 63.8015 49.3834ZM45.0015 51.6666C41.3248 51.6666 38.3348 48.6766 38.3348 45C38.3348 41.3234 41.3248 38.3334 45.0015 38.3334C48.6781 38.3334 51.6681 41.3234 51.6681 45C51.6681 48.6766 48.6781 51.6666 45.0015 51.6666Z" fill="#EE2A52"/>
</g>
<defs>
<clipPath id="clip0_1_216">
<rect width="40" height="40" fill="white" transform="translate(25 25)"/>
</clipPath>
</defs>
</svg>
