<svg width="26" height="26" viewBox="0 0 26 26" fill="none" xmlns="http://www.w3.org/2000/svg">
<path d="M17.3289 16.6898L23.175 10.9399L23.2491 10.8554C23.3588 10.7081 23.4117 10.5261 23.3981 10.343C23.3845 10.1598 23.3053 9.98773 23.175 9.85827L17.3289 4.11097L17.2483 4.04207C16.7803 3.69107 16.0913 4.02907 16.0913 4.65177V7.42077L15.7988 7.44027C11.1669 7.80687 8.4538 10.7384 7.8064 16.0554C7.7232 16.7379 8.5058 17.1656 9.0128 16.7132C10.8731 15.0518 12.7958 14.0196 14.7913 13.6062C15.1111 13.5399 15.4322 13.4892 15.7559 13.4541L16.0913 13.4242V16.149L16.0978 16.2556C16.1758 16.8445 16.8895 17.1214 17.3289 16.6898ZM15.8937 8.73637L17.3913 8.63627V5.99337L21.8711 10.3978L17.3913 14.8048V12.0007L15.6285 12.1593H15.6181C13.4042 12.3972 11.3151 13.2838 9.343 14.7619C9.7304 13.0212 10.3921 11.7121 11.2618 10.7748C12.3408 9.61127 13.8488 8.90017 15.8937 8.73637ZM7.1499 5.20037C6.28795 5.20037 5.4613 5.54278 4.85181 6.15227C4.24231 6.76176 3.8999 7.58841 3.8999 8.45037V18.8504C3.8999 19.7123 4.24231 20.539 4.85181 21.1485C5.4613 21.758 6.28795 22.1004 7.1499 22.1004H17.5499C18.4119 22.1004 19.2385 21.758 19.848 21.1485C20.4575 20.539 20.7999 19.7123 20.7999 18.8504V17.5504C20.7999 17.378 20.7314 17.2126 20.6095 17.0907C20.4876 16.9688 20.3223 16.9004 20.1499 16.9004C19.9775 16.9004 19.8122 16.9688 19.6903 17.0907C19.5684 17.2126 19.4999 17.378 19.4999 17.5504V18.8504C19.4999 19.3675 19.2945 19.8635 18.9288 20.2292C18.5631 20.5949 18.0671 20.8004 17.5499 20.8004H7.1499C6.63273 20.8004 6.13674 20.5949 5.77104 20.2292C5.40535 19.8635 5.1999 19.3675 5.1999 18.8504V8.45037C5.1999 7.93319 5.40535 7.4372 5.77104 7.07151C6.13674 6.70581 6.63273 6.50037 7.1499 6.50037H11.0499C11.2223 6.50037 11.3876 6.43188 11.5095 6.30999C11.6314 6.18809 11.6999 6.02276 11.6999 5.85037C11.6999 5.67798 11.6314 5.51265 11.5095 5.39075C11.3876 5.26885 11.2223 5.20037 11.0499 5.20037H7.1499Z" fill="#3B71ED"/>
</svg>
