<svg width="90" height="90" viewBox="0 0 90 90" fill="none" xmlns="http://www.w3.org/2000/svg">
<circle opacity="0.2" cx="45" cy="45" r="45" fill="#4D46C7"/>
<path d="M24 40.3655L45 52.5711L48.9975 50.1726L32.1548 40.2589L45 32.9569L57.7919 40.4188L53.5812 42.8706L45.1599 37.967L41.1624 40.4188L53.5279 47.6142L66 40.3122L44.7868 28L24 40.3655Z" fill="#6857D0"/>
<path d="M34.1797 48.4137L30.1289 46.0152V54.17L44.9995 62.8579L59.87 54.1167L59.9233 45.9619L55.8726 48.2538V51.7183L44.9995 57.9543L34.1797 51.665V48.4137Z" fill="#1F4EBA"/>
<path fill-rule="evenodd" clip-rule="evenodd" d="M26.1857 41.5918H26.5581H26.6121H27.0286L27.0861 48.9444C27.5893 49.1521 27.9434 49.6476 27.9434 50.2258C27.9434 50.7056 27.6995 51.1285 27.3289 51.3772L28.2637 56.0893C28.0676 55.9471 27.6167 55.6842 27.3815 55.7695C27.2667 55.8111 27.1878 55.877 27.1063 55.9451C26.9871 56.0446 26.8624 56.1489 26.6121 56.1885V56.1959C26.6034 56.1948 26.5948 56.1936 26.5864 56.1923C26.5771 56.1936 26.5677 56.1948 26.5581 56.1959V56.1876C26.3346 56.1473 26.2225 56.0439 26.1153 55.9451C26.0414 55.877 25.9699 55.8111 25.8659 55.7695C25.6527 55.6842 25.2441 55.9471 25.0664 56.0893L25.9011 51.4465C25.4669 51.2125 25.1718 50.7536 25.1718 50.2258C25.1718 49.6082 25.5757 49.085 26.1338 48.906L26.1857 41.5918Z" fill="#6857D0"/>
</svg>
