<svg width="131" height="23" viewBox="0 0 131 23" fill="none" xmlns="http://www.w3.org/2000/svg">
<path d="M0 7.98276L13.5569 15.8623L16.1376 14.3139L5.26449 7.91394L13.5569 3.19999L21.815 8.01717L19.0967 9.59996L13.6602 6.43438L11.0795 8.01717L19.0623 12.6623L27.1139 7.94835L13.4193 0L0 7.98276Z" fill="#6857D0"/>
<path d="M6.57207 13.1785L3.95703 11.6301V16.8946L13.557 22.5032L23.1569 16.8602L23.1914 11.5957L20.5763 13.0753V15.3118L13.557 19.3376L6.57207 15.2774V13.1785Z" fill="#1F4EBA"/>
<path fill-rule="evenodd" clip-rule="evenodd" d="M1.95538 8.77441H1.65164V8.77453H1.41069L1.3772 13.4965C1.01738 13.6124 0.757038 13.9499 0.757038 14.3482C0.757038 14.6887 0.94717 14.9847 1.22703 15.1359L0.68811 18.1336C0.802805 18.0419 1.0666 17.8721 1.20424 17.9272C1.27136 17.954 1.31753 17.9966 1.36523 18.0406C1.43452 18.1044 1.50702 18.1713 1.65164 18.1972V18.2023L1.66924 18.2001L1.68596 18.2024V18.1977C1.84789 18.1721 1.92852 18.1048 2.00554 18.0404C2.05817 17.9965 2.10912 17.9539 2.18319 17.9271C2.33506 17.872 2.62615 18.0418 2.75271 18.1335L2.14931 15.0918C2.38871 14.9312 2.54628 14.6581 2.54628 14.3482C2.54628 13.9749 2.31753 13.6549 1.99253 13.5209L1.95538 8.77441Z" fill="#6857D0"/>
<path d="M41.3328 8.54446C41.2749 7.96023 41.0262 7.50637 40.5868 7.18287C40.1474 6.85937 39.5511 6.69762 38.7979 6.69762C38.2861 6.69762 37.854 6.77004 37.5015 6.91489C37.149 7.05492 36.8786 7.25046 36.6903 7.50154C36.5069 7.75261 36.4151 8.03749 36.4151 8.35616C36.4055 8.62172 36.461 8.85348 36.5817 9.05144C36.7072 9.2494 36.8786 9.42081 37.0959 9.56566C37.3132 9.70568 37.5643 9.82881 37.8491 9.93503C38.134 10.0364 38.4382 10.1233 38.7617 10.1958L40.0943 10.5144C40.7413 10.6593 41.3352 10.8524 41.876 11.0938C42.4168 11.3353 42.8851 11.6322 43.281 11.9847C43.677 12.3371 43.9836 12.7524 44.2008 13.2304C44.423 13.7084 44.5364 14.2564 44.5412 14.8744C44.5364 15.7822 44.3047 16.5692 43.846 17.2355C43.3921 17.897 42.7354 18.4112 41.876 18.7782C41.0214 19.1403 39.9905 19.3214 38.7834 19.3214C37.586 19.3214 36.5431 19.1379 35.6547 18.7709C34.7711 18.404 34.0806 17.8608 33.5833 17.1414C33.0908 16.4171 32.8325 15.5214 32.8083 14.4544H35.843C35.8768 14.9517 36.0192 15.3669 36.2703 15.7001C36.5262 16.0284 36.8666 16.2771 37.2915 16.4461C37.7212 16.6102 38.2064 16.6923 38.7472 16.6923C39.2783 16.6923 39.7394 16.6151 40.1305 16.4606C40.5265 16.3061 40.8331 16.0912 41.0503 15.816C41.2676 15.5408 41.3763 15.2245 41.3763 14.8672C41.3763 14.534 41.2773 14.254 41.0793 14.0271C40.8862 13.8001 40.6013 13.607 40.2247 13.4477C39.8529 13.2883 39.3966 13.1435 38.8559 13.0131L37.2408 12.6075C35.9902 12.3033 35.0028 11.8277 34.2786 11.1807C33.5543 10.5337 33.1946 9.66223 33.1994 8.56619C33.1946 7.66812 33.4336 6.88351 33.9164 6.21237C34.4041 5.54122 35.0728 5.01735 35.9226 4.64074C36.7724 4.26412 37.7381 4.07582 38.8196 4.07582C39.9205 4.07582 40.8814 4.26412 41.7022 4.64074C42.5278 5.01735 43.17 5.54122 43.6287 6.21237C44.0874 6.88351 44.324 7.66087 44.3385 8.54446H41.3328ZM60.2811 11.695C60.2811 13.3125 59.9745 14.6886 59.3613 15.8232C58.7529 16.9579 57.9224 17.8246 56.8699 18.4233C55.8221 19.0172 54.644 19.3141 53.3355 19.3141C52.0174 19.3141 50.8344 19.0148 49.7867 18.416C48.7389 17.8173 47.9108 16.9506 47.3025 15.816C46.6941 14.6813 46.3899 13.3076 46.3899 11.695C46.3899 10.0775 46.6941 8.70139 47.3025 7.56672C47.9108 6.43206 48.7389 5.56778 49.7867 4.97389C50.8344 4.37518 52.0174 4.07582 53.3355 4.07582C54.644 4.07582 55.8221 4.37518 56.8699 4.97389C57.9224 5.56778 58.7529 6.43206 59.3613 7.56672C59.9745 8.70139 60.2811 10.0775 60.2811 11.695ZM57.1016 11.695C57.1016 10.6472 56.9447 9.76362 56.6309 9.0442C56.3218 8.32477 55.8849 7.77917 55.32 7.40739C54.755 7.0356 54.0936 6.84971 53.3355 6.84971C52.5774 6.84971 51.916 7.0356 51.351 7.40739C50.7861 7.77917 50.3467 8.32477 50.0329 9.0442C49.7239 9.76362 49.5694 10.6472 49.5694 11.695C49.5694 12.7427 49.7239 13.6263 50.0329 14.3457C50.3467 15.0652 50.7861 15.6108 51.351 15.9826C51.916 16.3543 52.5774 16.5402 53.3355 16.5402C54.0936 16.5402 54.755 16.3543 55.32 15.9826C55.8849 15.6108 56.3218 15.0652 56.6309 14.3457C56.9447 13.6263 57.1016 12.7427 57.1016 11.695ZM62.6041 19.1113V4.27861H68.4561C69.5811 4.27861 70.5395 4.49347 71.3314 4.92319C72.1232 5.34809 72.7268 5.93956 73.142 6.69762C73.5621 7.45084 73.7721 8.31995 73.7721 9.30493C73.7721 10.2899 73.5597 11.159 73.1348 11.9122C72.7099 12.6655 72.0943 13.2521 71.2879 13.6722C70.4864 14.0922 69.5159 14.3023 68.3764 14.3023H64.6465V11.7891H67.8695C68.473 11.7891 68.9703 11.6853 69.3614 11.4777C69.7574 11.2652 70.0519 10.9731 70.245 10.6013C70.443 10.2247 70.542 9.79259 70.542 9.30493C70.542 8.81244 70.443 8.38271 70.245 8.01576C70.0519 7.64397 69.7574 7.35669 69.3614 7.1539C68.9655 6.94628 68.4634 6.84247 67.855 6.84247H65.7402V19.1113H62.6041Z" fill="#0E0F0C"/>
<path d="M93.9553 9.47151H90.783C90.7251 9.0611 90.6068 8.69656 90.4282 8.37789C90.2495 8.05438 90.0202 7.77917 89.7401 7.55224C89.4601 7.3253 89.1366 7.15148 88.7696 7.03077C88.4075 6.91006 88.014 6.84971 87.5891 6.84971C86.8214 6.84971 86.1526 7.04043 85.5829 7.42187C85.0132 7.79848 84.5714 8.34892 84.2575 9.07317C83.9437 9.79259 83.7868 10.6665 83.7868 11.695C83.7868 12.7524 83.9437 13.6408 84.2575 14.3602C84.5762 15.0796 85.0204 15.6228 85.5901 15.9898C86.1599 16.3567 86.819 16.5402 87.5674 16.5402C87.9874 16.5402 88.3761 16.4847 88.7334 16.3736C89.0955 16.2626 89.4166 16.1008 89.6967 15.8884C89.9767 15.6711 90.2085 15.408 90.3919 15.099C90.5803 14.7899 90.7106 14.4375 90.783 14.0416L93.9553 14.056C93.8732 14.7368 93.668 15.3935 93.3397 16.026C93.0162 16.6537 92.5792 17.2162 92.0288 17.7135C91.4832 18.206 90.8313 18.5971 90.0733 18.8868C89.3201 19.1717 88.4678 19.3141 87.5167 19.3141C86.1937 19.3141 85.0107 19.0148 83.9678 18.416C82.9297 17.8173 82.1089 16.9506 81.5054 15.816C80.9066 14.6813 80.6073 13.3076 80.6073 11.695C80.6073 10.0775 80.9115 8.70139 81.5198 7.56672C82.1282 6.43206 82.9539 5.56778 83.9968 4.97389C85.0397 4.37518 86.213 4.07582 87.5167 4.07582C88.3761 4.07582 89.1728 4.19653 89.9067 4.43794C90.6454 4.67936 91.2997 5.03183 91.8694 5.49535C92.4392 5.95405 92.9027 6.51655 93.26 7.18287C93.6221 7.84918 93.8539 8.61206 93.9553 9.47151ZM96.1461 19.1113V7.98679H99.1373V9.92779H99.2532C99.456 9.23733 99.7964 8.71587 100.274 8.3634C100.752 8.0061 101.303 7.82745 101.926 7.82745C102.08 7.82745 102.247 7.83711 102.425 7.85642C102.604 7.87574 102.761 7.90229 102.896 7.93609V10.6738C102.751 10.6303 102.551 10.5917 102.295 10.5579C102.039 10.5241 101.805 10.5072 101.593 10.5072C101.139 10.5072 100.733 10.6062 100.376 10.8041C100.023 10.9973 99.7433 11.2677 99.5357 11.6153C99.3329 11.9629 99.2315 12.3637 99.2315 12.8176V19.1113H96.1461ZM107.345 19.3214C106.635 19.3214 106.003 19.1982 105.447 18.952C104.892 18.7009 104.453 18.3315 104.129 17.8439C103.811 17.3514 103.651 16.7382 103.651 16.0043C103.651 15.3862 103.765 14.8672 103.992 14.4471C104.219 14.0271 104.528 13.6891 104.919 13.4332C105.31 13.1773 105.754 12.9841 106.251 12.8538C106.753 12.7234 107.28 12.6317 107.83 12.5786C108.477 12.511 108.999 12.4482 109.395 12.3903C109.79 12.3275 110.078 12.2357 110.256 12.115C110.435 11.9943 110.524 11.8157 110.524 11.5791V11.5356C110.524 11.0769 110.38 10.7221 110.09 10.471C109.805 10.2199 109.399 10.0944 108.873 10.0944C108.318 10.0944 107.876 10.2175 107.548 10.4637C107.219 10.7052 107.002 11.0093 106.896 11.3763L104.042 11.1445C104.187 10.4686 104.472 9.88433 104.897 9.39184C105.322 8.89452 105.87 8.51308 106.541 8.24752C107.217 7.97713 107.999 7.84194 108.888 7.84194C109.506 7.84194 110.097 7.91436 110.662 8.05921C111.232 8.20406 111.736 8.42858 112.176 8.73277C112.62 9.03696 112.97 9.42805 113.226 9.90606C113.482 10.3792 113.61 10.9466 113.61 11.6081V19.1113H110.684V17.5687H110.597C110.418 17.9163 110.179 18.2229 109.88 18.4885C109.58 18.7492 109.221 18.9544 108.801 19.1041C108.381 19.2489 107.895 19.3214 107.345 19.3214ZM108.229 17.1921C108.682 17.1921 109.083 17.1027 109.431 16.9241C109.778 16.7406 110.051 16.4944 110.249 16.1853C110.447 15.8763 110.546 15.5263 110.546 15.1352V13.9546C110.45 14.0174 110.317 14.0753 110.148 14.1285C109.984 14.1767 109.798 14.2226 109.59 14.2661C109.382 14.3047 109.175 14.3409 108.967 14.3747C108.76 14.4037 108.571 14.4302 108.402 14.4544C108.04 14.5075 107.724 14.592 107.454 14.7079C107.183 14.8237 106.973 14.9807 106.823 15.1786C106.674 15.3718 106.599 15.6132 106.599 15.9029C106.599 16.323 106.751 16.644 107.055 16.8661C107.364 17.0834 107.755 17.1921 108.229 17.1921ZM121.986 7.98679V10.3044H115.12V7.98679H121.986ZM116.691 19.1113V7.18287C116.691 6.37653 116.848 5.7078 117.162 5.17668C117.481 4.64556 117.915 4.24722 118.466 3.98166C119.016 3.7161 119.642 3.58332 120.342 3.58332C120.815 3.58332 121.247 3.61954 121.638 3.69196C122.034 3.76439 122.329 3.82957 122.522 3.88751L121.971 6.20512C121.851 6.1665 121.701 6.13028 121.522 6.09649C121.348 6.06269 121.17 6.04579 120.986 6.04579C120.532 6.04579 120.216 6.15201 120.037 6.36446C119.859 6.57208 119.77 6.8642 119.77 7.24081V19.1113H116.691ZM129.788 7.98679V10.3044H123.088V7.98679H129.788ZM124.609 5.32153H127.695V15.6928C127.695 15.9777 127.738 16.1998 127.825 16.3592C127.912 16.5137 128.033 16.6223 128.187 16.6851C128.346 16.7478 128.53 16.7792 128.738 16.7792C128.882 16.7792 129.027 16.7672 129.172 16.743C129.317 16.714 129.428 16.6923 129.505 16.6778L129.991 18.9737C129.836 19.022 129.619 19.0775 129.339 19.1403C129.059 19.2079 128.718 19.2489 128.318 19.2634C127.574 19.2924 126.922 19.1934 126.362 18.9665C125.807 18.7395 125.375 18.3871 125.066 17.9091C124.757 17.4311 124.604 16.8275 124.609 16.0984V5.32153Z" fill="#6857D0"/>
</svg>
