<svg width="28" height="23" viewBox="0 0 28 23" fill="none" xmlns="http://www.w3.org/2000/svg">
<path d="M0 7.98276L13.5569 15.8623L16.1376 14.3139L5.26449 7.91394L13.5569 3.19999L21.815 8.01717L19.0967 9.59996L13.6602 6.43438L11.0795 8.01717L19.0623 12.6623L27.1139 7.94835L13.4193 0L0 7.98276Z" fill="#6857D0"/>
<path d="M6.57207 13.1785L3.95703 11.6301V16.8946L13.557 22.5032L23.1569 16.8602L23.1914 11.5957L20.5763 13.0753V15.3118L13.557 19.3376L6.57207 15.2774V13.1785Z" fill="#1F4EBA"/>
<path fill-rule="evenodd" clip-rule="evenodd" d="M1.95538 8.77441H1.65164V8.77453H1.41069L1.3772 13.4965C1.01738 13.6124 0.757038 13.9499 0.757038 14.3482C0.757038 14.6887 0.94717 14.9847 1.22703 15.1359L0.68811 18.1336C0.802805 18.0419 1.0666 17.8721 1.20424 17.9272C1.27136 17.954 1.31753 17.9966 1.36523 18.0406C1.43452 18.1044 1.50702 18.1713 1.65164 18.1972V18.2023L1.66924 18.2001L1.68596 18.2024V18.1977C1.84789 18.1721 1.92852 18.1048 2.00554 18.0404C2.05817 17.9965 2.10912 17.9539 2.18319 17.9271C2.33506 17.872 2.62615 18.0418 2.75271 18.1335L2.14931 15.0918C2.38871 14.9312 2.54628 14.6581 2.54628 14.3482C2.54628 13.9749 2.31753 13.6549 1.99253 13.5209L1.95538 8.77441Z" fill="#6857D0"/>
</svg>
