<svg width="24" height="25" viewBox="0 0 24 25" fill="none" xmlns="http://www.w3.org/2000/svg">
<mask id="mask0_40_31" style="mask-type:alpha" maskUnits="userSpaceOnUse" x="0" y="0" width="24" height="25">
<g clip-path="url(#clip0_40_31)">
<path d="M12 21.3901C13.1819 21.3901 14.3522 21.1573 15.4442 20.7051C16.5361 20.2528 17.5282 19.5898 18.364 18.7541C19.1997 17.9184 19.8626 16.9262 20.3149 15.8343C20.7672 14.7424 21 13.572 21 12.3901C21 11.2082 20.7672 10.0379 20.3149 8.94599C19.8626 7.85406 19.1997 6.8619 18.364 6.02618C17.5282 5.19045 16.5361 4.52751 15.4442 4.07522C14.3522 3.62293 13.1819 3.39014 12 3.39014C9.61305 3.39014 7.32387 4.33835 5.63604 6.02618C3.94821 7.714 3 10.0032 3 12.3901C3 14.7771 3.94821 17.0663 5.63604 18.7541C7.32387 20.4419 9.61305 21.3901 12 21.3901Z" stroke="black" stroke-width="2" stroke-linecap="round" stroke-linejoin="round"/>
<path d="M9.94305 16.133C10.1306 16.3205 10.3849 16.4258 10.65 16.4258C10.9152 16.4258 11.1695 16.3205 11.357 16.133L17 10.49C17.0935 10.3985 17.1679 10.2893 17.2189 10.1687C17.2699 10.0482 17.2964 9.91882 17.2971 9.78797C17.2978 9.65712 17.2725 9.52744 17.2227 9.40642C17.1729 9.28541 17.0997 9.17546 17.0072 9.08293C16.9146 8.99041 16.8047 8.91714 16.6837 8.86737C16.5627 8.8176 16.433 8.79232 16.3021 8.79298C16.1713 8.79364 16.0419 8.82024 15.9213 8.87122C15.8008 8.92221 15.6916 8.99658 15.6 9.09004L10.8621 13.828C10.8058 13.8842 10.7295 13.9158 10.65 13.9158C10.5705 13.9158 10.4943 13.8842 10.438 13.828L8.50005 11.89C8.40846 11.7966 8.29926 11.7222 8.17875 11.6712C8.05825 11.6202 7.92883 11.5936 7.79798 11.593C7.66713 11.5923 7.53745 11.6176 7.41643 11.6674C7.29542 11.7171 7.18547 11.7904 7.09294 11.8829C7.00042 11.9755 6.92715 12.0854 6.87738 12.2064C6.82762 12.3274 6.80233 12.4571 6.80299 12.588C6.80365 12.7188 6.83025 12.8482 6.88123 12.9687C6.93222 13.0893 7.00659 13.1985 7.10005 13.29L9.94305 16.133Z" fill="black"/>
</g>
</mask>
<g mask="url(#mask0_40_31)">
<rect y="0.390137" width="24" height="24" fill="black"/>
</g>
<defs>
<clipPath id="clip0_40_31">
<rect width="24" height="24" fill="white" transform="translate(0 0.390137)"/>
</clipPath>
</defs>
</svg>
