<svg width="150" height="31" viewBox="0 0 150 31" fill="none" xmlns="http://www.w3.org/2000/svg">
<g clip-path="url(#clip0_1_134)">
<path d="M35.6378 8.79785H49.3557V11.3163H43.9544V25.5135H40.9939V11.3163H35.6152L35.6378 8.79785ZM48.7681 13.4113H51.2993V15.7515H51.3445C51.4349 15.4172 51.5931 15.1052 51.8191 14.7932C52.045 14.4811 52.3162 14.1914 52.6552 13.9462C52.9716 13.6788 53.3332 13.4782 53.74 13.3222C54.1242 13.1662 54.531 13.077 54.9378 13.077C55.2542 13.077 55.4802 13.0993 55.5932 13.0993C55.7062 13.1216 55.8418 13.1439 55.9548 13.1439V15.707C55.774 15.6624 55.5706 15.6401 55.3672 15.6178C55.1638 15.5955 54.983 15.5732 54.7796 15.5732C54.3276 15.5732 53.8982 15.6624 53.4914 15.8407C53.0846 16.019 52.7456 16.2864 52.4292 16.6207C52.1354 16.9773 51.8869 17.4008 51.7061 17.9134C51.5253 18.426 51.4349 19.0278 51.4349 19.6964V25.4466H48.7229L48.7681 13.4113ZM68.3845 25.5135H65.7177V23.8196H65.6725C65.3335 24.4437 64.8363 24.9117 64.181 25.2906C63.5256 25.6695 62.8476 25.8478 62.1696 25.8478C60.5651 25.8478 59.3899 25.4689 58.6667 24.6665C57.9435 23.8865 57.5819 22.6829 57.5819 21.1005V13.4113H60.2939V20.8331C60.2939 21.9029 60.4973 22.6607 60.9266 23.0841C61.3334 23.5299 61.921 23.7527 62.6668 23.7527C63.2318 23.7527 63.7064 23.6636 64.0906 23.4853C64.4748 23.307 64.7912 23.0841 65.0171 22.7944C65.2657 22.5046 65.4239 22.148 65.5369 21.7469C65.6499 21.3457 65.6951 20.8999 65.6951 20.4319V13.4113H68.4071V25.5135H68.3845ZM72.9948 21.6354C73.0852 22.4155 73.3789 22.9504 73.8987 23.2847C74.4185 23.5967 75.0513 23.7527 75.7745 23.7527C76.0231 23.7527 76.3169 23.7305 76.6333 23.6859C76.9497 23.6413 77.2661 23.5744 77.5373 23.463C77.831 23.3516 78.057 23.1956 78.2378 22.9727C78.4186 22.7498 78.509 22.4824 78.4864 22.148C78.4638 21.8137 78.3508 21.524 78.1022 21.3011C77.8536 21.0782 77.5599 20.9222 77.1983 20.7662C76.8367 20.6325 76.4073 20.5211 75.9327 20.4319C75.4581 20.3428 74.9835 20.2313 74.4863 20.1199C73.9891 20.0084 73.4919 19.8747 73.0174 19.7187C72.5428 19.5627 72.136 19.3621 71.7518 19.0724C71.3902 18.8049 71.0738 18.4706 70.8704 18.0471C70.6444 17.6237 70.5314 17.1334 70.5314 16.5093C70.5314 15.8407 70.6896 15.3058 71.0286 14.86C71.345 14.4143 71.7744 14.0577 72.2716 13.7902C72.7688 13.5228 73.3338 13.3222 73.9439 13.2107C74.5541 13.0993 75.1417 13.0547 75.6841 13.0547C76.3169 13.0547 76.9271 13.1216 77.4921 13.2553C78.057 13.3891 78.5994 13.5896 79.0514 13.9017C79.526 14.1914 79.9102 14.5926 80.204 15.0606C80.5204 15.5286 80.7012 16.1081 80.7916 16.7768H77.9666C77.831 16.1304 77.5373 15.707 77.0853 15.4841C76.6107 15.2612 76.0909 15.1498 75.4807 15.1498C75.2999 15.1498 75.0513 15.1721 74.8027 15.1943C74.5315 15.2389 74.3055 15.2835 74.0569 15.3726C73.8309 15.4618 73.6275 15.5955 73.4693 15.7515C73.3111 15.9075 73.2208 16.1304 73.2208 16.3979C73.2208 16.7322 73.3337 16.9773 73.5597 17.1779C73.7857 17.3785 74.0795 17.5345 74.4637 17.6905C74.8253 17.8243 75.2547 17.9357 75.7293 18.0249C76.2039 18.114 76.7011 18.2254 77.1983 18.3369C77.6954 18.4483 78.17 18.582 78.6446 18.7381C79.1192 18.8941 79.5486 19.0947 79.9102 19.3844C80.2718 19.6518 80.5882 19.9862 80.8142 20.3873C81.0402 20.7885 81.1532 21.3011 81.1532 21.8806C81.1532 22.5938 80.995 23.1956 80.656 23.7082C80.317 24.1985 79.8876 24.622 79.3678 24.934C78.848 25.246 78.2378 25.4689 77.605 25.6249C76.9497 25.7586 76.3169 25.8478 75.6841 25.8478C74.9157 25.8478 74.1925 25.7586 73.5371 25.5803C72.8818 25.402 72.2942 25.1346 71.8196 24.8003C71.345 24.4437 70.9608 24.0202 70.6896 23.4853C70.4184 22.9727 70.2602 22.3486 70.2376 21.6131H72.9722V21.6354H72.9948ZM81.9215 13.4113H83.9781V9.75621H86.69V13.389H89.1308V15.3726H86.69V21.836C86.69 22.1258 86.7126 22.3486 86.7352 22.5715C86.7578 22.7721 86.8256 22.9504 86.8934 23.0841C86.9838 23.2178 87.1194 23.3293 87.2776 23.3962C87.4584 23.463 87.6844 23.5076 88.0008 23.5076C88.1816 23.5076 88.385 23.5076 88.5658 23.4853C88.7466 23.463 88.95 23.4407 89.1308 23.3962V25.4689C88.837 25.5135 88.5432 25.5357 88.2494 25.558C87.9556 25.6026 87.6844 25.6026 87.368 25.6026C86.6448 25.6026 86.0798 25.5358 85.6505 25.402C85.2211 25.2683 84.8821 25.0677 84.6335 24.8226C84.3849 24.5551 84.2267 24.2431 84.1363 23.8642C84.0459 23.4853 84.0007 23.0173 83.9781 22.5269V15.3949H81.9215V13.3668V13.4113ZM91.0291 13.4113H93.5829V15.0606H93.6281C94.0123 14.3474 94.5321 13.8571 95.21 13.5451C95.888 13.233 96.6112 13.077 97.4248 13.077C98.3966 13.077 99.2327 13.233 99.9559 13.5896C100.679 13.924 101.267 14.3697 101.741 14.9715C102.216 15.5509 102.577 16.2419 102.803 17.0219C103.029 17.802 103.165 18.6489 103.165 19.5181C103.165 20.3428 103.052 21.1228 102.849 21.8806C102.623 22.6384 102.306 23.3293 101.877 23.9088C101.447 24.4882 100.905 24.9563 100.227 25.3129C99.5491 25.6695 98.7808 25.8478 97.8768 25.8478C97.4926 25.8478 97.0858 25.8032 96.7016 25.7363C96.3174 25.6695 95.9332 25.558 95.5716 25.402C95.21 25.246 94.871 25.0454 94.5773 24.8003C94.2609 24.5551 94.0123 24.2654 93.8089 23.9533H93.7637V29.9933H91.0517V13.4113H91.0291ZM100.498 19.4735C100.498 18.9386 100.431 18.4037 100.272 17.8911C100.137 17.3785 99.9107 16.9328 99.6169 16.5316C99.3231 16.1304 98.9616 15.8184 98.5548 15.5732C98.1254 15.3281 97.6282 15.2166 97.0858 15.2166C95.9558 15.2166 95.097 15.5955 94.5095 16.3756C93.9445 17.1556 93.6507 18.2032 93.6507 19.4958C93.6507 20.1199 93.7185 20.6771 93.8767 21.1897C94.0349 21.7023 94.2383 22.148 94.5546 22.5269C94.8484 22.9058 95.21 23.1956 95.6394 23.4184C96.0688 23.6413 96.5434 23.7527 97.1084 23.7527C97.7412 23.7527 98.2384 23.619 98.6678 23.3739C99.0971 23.1287 99.4361 22.7944 99.7299 22.4155C100.001 22.0143 100.205 21.5686 100.318 21.056C100.431 20.5211 100.498 20.0084 100.498 19.4735ZM105.267 8.79785H107.979V11.3163H105.267V8.79785ZM105.267 13.4113H107.979V25.5135H105.267V13.4113ZM110.397 8.79785H113.109V25.5135H110.397V8.79785ZM121.38 25.8478C120.408 25.8478 119.527 25.6918 118.759 25.3575C117.99 25.0231 117.358 24.5997 116.815 24.0425C116.295 23.4853 115.889 22.7944 115.617 22.0143C115.346 21.2343 115.188 20.365 115.188 19.4513C115.188 18.5375 115.324 17.6905 115.617 16.9105C115.889 16.1304 116.295 15.4618 116.815 14.8823C117.335 14.3251 117.99 13.8794 118.759 13.5674C119.527 13.2553 120.408 13.077 121.38 13.077C122.352 13.077 123.233 13.233 124.002 13.5674C124.77 13.8794 125.403 14.3251 125.945 14.8823C126.465 15.4395 126.872 16.1304 127.143 16.9105C127.414 17.6905 127.572 18.5375 127.572 19.4513C127.572 20.3873 127.437 21.2343 127.143 22.0143C126.849 22.7944 126.465 23.463 125.945 24.0425C125.426 24.5997 124.77 25.0454 124.002 25.3575C123.233 25.6695 122.375 25.8478 121.38 25.8478ZM121.38 23.7305C121.968 23.7305 122.51 23.5967 122.94 23.3516C123.392 23.1064 123.731 22.7721 124.024 22.3709C124.318 21.9697 124.522 21.5017 124.657 21.0114C124.793 20.4988 124.861 19.9862 124.861 19.4513C124.861 18.9386 124.793 18.426 124.657 17.9134C124.522 17.4008 124.318 16.9551 124.024 16.5539C123.731 16.1527 123.369 15.8407 122.94 15.5955C122.488 15.3504 121.968 15.2166 121.38 15.2166C120.793 15.2166 120.25 15.3504 119.821 15.5955C119.369 15.8407 119.03 16.175 118.736 16.5539C118.442 16.9551 118.239 17.4008 118.103 17.9134C117.968 18.426 117.9 18.9386 117.9 19.4513C117.9 19.9862 117.968 20.4988 118.103 21.0114C118.239 21.524 118.442 21.9697 118.736 22.3709C119.03 22.7721 119.391 23.1064 119.821 23.3516C120.273 23.619 120.793 23.7305 121.38 23.7305ZM128.386 13.4113H130.443V9.75621H133.155V13.389H135.595V15.3726H133.155V21.836C133.155 22.1258 133.177 22.3486 133.2 22.5715C133.222 22.7721 133.29 22.9504 133.358 23.0841C133.448 23.2178 133.584 23.3293 133.742 23.3962C133.923 23.463 134.149 23.5076 134.465 23.5076C134.646 23.5076 134.85 23.5076 135.03 23.4853C135.211 23.463 135.414 23.4407 135.595 23.3962V25.4689C135.301 25.5135 135.008 25.5357 134.714 25.558C134.42 25.6026 134.149 25.6026 133.833 25.6026C133.109 25.6026 132.544 25.5358 132.115 25.402C131.686 25.2683 131.347 25.0677 131.098 24.8226C130.849 24.5551 130.691 24.2431 130.601 23.8642C130.51 23.4853 130.465 23.0173 130.443 22.5269V15.3949H128.386V13.3668V13.4113Z" fill="black"/>
<path d="M30.9343 12.237H19.116L15.4779 1.15503L11.8183 12.237L0 12.2158L9.55799 19.073L5.8984 30.155L15.4564 23.2977L25.0144 30.155L21.3763 19.073L30.9343 12.237Z" fill="#00B67A"/>
<path d="M22.1949 21.5783L21.3769 19.0732L15.4785 23.298L22.1949 21.5783Z" fill="#005128"/>
</g>
<defs>
<clipPath id="clip0_1_134">
<rect width="150" height="30" fill="white" transform="translate(0 0.155029)"/>
</clipPath>
</defs>
</svg>
