<svg width="29" height="29" viewBox="0 0 29 29" fill="none" xmlns="http://www.w3.org/2000/svg">
<path d="M28.4688 24.9524C28.4688 26.0011 28.059 27.0069 27.3297 27.7485C26.6004 28.49 25.6113 28.9066 24.5799 28.9066H4.35764C3.32624 28.9066 2.33709 28.49 1.60778 27.7485C0.878471 27.0069 0.46875 26.0011 0.46875 24.9524V4.39028C0.46875 3.34155 0.878471 2.33577 1.60778 1.59421C2.33709 0.852642 3.32624 0.436035 4.35764 0.436035H24.5799C25.6113 0.436035 26.6004 0.852642 27.3297 1.59421C28.059 2.33577 28.4688 3.34155 28.4688 4.39028V24.9524Z" fill="#3B71ED"/>
<path d="M19.8769 11.4402C19.4794 11.6255 18.9759 11.7993 18.5247 11.8571C18.9835 11.571 19.7115 10.9751 19.8769 10.436C19.4483 10.7008 18.673 10.9836 18.1672 11.0859C17.7633 10.6359 17.1873 10.436 16.549 10.436C15.3229 10.436 14.4678 11.5279 14.4678 12.8045V13.7518C12.6648 13.7518 10.9069 12.3085 9.81286 10.9097C9.61505 11.2623 9.5112 11.6643 9.51221 12.0736C9.51221 12.9352 10.2654 13.8096 10.8618 14.2255C10.498 14.2137 9.80926 13.9219 9.5095 13.7518V13.7788C9.5095 14.9 10.2582 15.6612 11.2729 15.8735C11.0876 15.927 10.8618 16.1202 9.99272 16.1202C10.2749 17.0368 11.6934 17.5214 12.6648 17.5413C11.9048 18.1604 10.5499 18.4887 9.5095 18.4887C9.32965 18.4887 9.23229 18.4991 9.05875 18.4778C10.0405 19.1315 11.4117 19.436 12.6648 19.436C16.7473 19.436 18.9754 16.1591 18.9754 13.1029C18.9754 13.0025 18.9723 12.6661 18.9673 12.5676C19.4036 12.2446 19.5803 11.9064 19.8769 11.4402" fill="white"/>
</svg>
