<svg width="36" height="36" viewBox="0 0 36 36" fill="none" xmlns="http://www.w3.org/2000/svg">
<g clip-path="url(#clip0_245_1753)">
<path d="M30.6934 9.83029C30.0138 10.7369 29.1922 11.5277 28.2605 12.1723C28.2605 12.4091 28.2605 12.6459 28.2605 12.8959C28.2679 17.1966 26.55 21.3205 23.492 24.343C20.4337 27.3656 16.2911 29.0338 11.9929 28.9738C9.50793 28.9822 7.0548 28.4148 4.82566 27.3161C4.70546 27.2636 4.62794 27.1447 4.62839 27.0135V26.8687C4.62839 26.6798 4.78148 26.5267 4.97032 26.5267C7.41296 26.4461 9.76846 25.5992 11.7036 24.1058C9.49263 24.0612 7.50336 22.7514 6.58787 20.7375C6.54164 20.6276 6.55602 20.5013 6.62587 20.4046C6.6957 20.3078 6.81089 20.2546 6.92979 20.2639C7.60174 20.3314 8.28041 20.2689 8.92873 20.0797C6.48805 19.5731 4.65414 17.5468 4.39167 15.0668C4.38235 14.9478 4.43566 14.8327 4.53237 14.7627C4.62905 14.6929 4.75515 14.6784 4.86511 14.7248C5.52008 15.0138 6.22712 15.166 6.94295 15.172C4.80432 13.7684 3.88058 11.0985 4.69414 8.67247C4.77813 8.43673 4.97989 8.26257 5.22529 8.21401C5.47067 8.16544 5.72352 8.24963 5.89088 8.43565C8.77682 11.5071 12.7421 13.3374 16.9507 13.5406C16.843 13.1104 16.79 12.6684 16.7929 12.2249C16.8323 9.89954 18.2711 7.82807 20.4358 6.98026C22.6003 6.13246 25.0623 6.67611 26.6693 8.3567C27.7645 8.14803 28.8235 7.78013 29.8123 7.26466C29.8847 7.21944 29.9766 7.21944 30.0491 7.26466C30.0943 7.33713 30.0943 7.42901 30.0491 7.50148C29.5701 8.59827 28.761 9.51817 27.7345 10.1329C28.6334 10.0287 29.5164 9.81663 30.3647 9.50137C30.4361 9.45276 30.5299 9.45276 30.6013 9.50137C30.6612 9.52874 30.706 9.58108 30.7237 9.64446C30.7414 9.70784 30.7303 9.77582 30.6934 9.83029Z" fill="#0E0F0C"/>
</g>
<defs>
<clipPath id="clip0_245_1753">
<rect width="36" height="36" fill="white"/>
</clipPath>
</defs>
</svg>
