<svg width="17" height="17" viewBox="0 0 17 17" fill="none" xmlns="http://www.w3.org/2000/svg">
<g clip-path="url(#clip0_189_482)">
<path d="M1.36816 10.8375C1.50077 10.8375 1.62795 10.8902 1.72172 10.9839C1.81549 11.0777 1.86816 11.2049 1.86816 11.3375V13.8375C1.86816 14.1027 1.97352 14.3571 2.16106 14.5446C2.34859 14.7321 2.60295 14.8375 2.86816 14.8375H14.8682C15.1334 14.8375 15.3877 14.7321 15.5753 14.5446C15.7628 14.3571 15.8682 14.1027 15.8682 13.8375V11.3375C15.8682 11.2049 15.9208 11.0777 16.0146 10.9839C16.1084 10.8902 16.2356 10.8375 16.3682 10.8375C16.5008 10.8375 16.6279 10.8902 16.7217 10.9839C16.8155 11.0777 16.8682 11.2049 16.8682 11.3375V13.8375C16.8682 14.3679 16.6574 14.8766 16.2824 15.2517C15.9073 15.6268 15.3986 15.8375 14.8682 15.8375H2.86816C2.33773 15.8375 1.82902 15.6268 1.45395 15.2517C1.07888 14.8766 0.868164 14.3679 0.868164 13.8375V11.3375C0.868164 11.2049 0.920842 11.0777 1.01461 10.9839C1.10838 10.8902 1.23556 10.8375 1.36816 10.8375Z" fill="#3B71ED"/>
<path d="M8.51382 2.08349C8.56026 2.03693 8.61544 1.99999 8.67619 1.97478C8.73693 1.94957 8.80205 1.9366 8.86782 1.9366C8.93359 1.9366 8.99871 1.94957 9.05945 1.97478C9.1202 1.99999 9.17537 2.03693 9.22182 2.08349L12.2218 5.08349C12.3157 5.17738 12.3685 5.30472 12.3685 5.43749C12.3685 5.57027 12.3157 5.69761 12.2218 5.79149C12.1279 5.88538 12.0006 5.93813 11.8678 5.93813C11.735 5.93813 11.6077 5.88538 11.5138 5.79149L9.36782 3.64449V12.4375C9.36782 12.5701 9.31514 12.6973 9.22137 12.791C9.1276 12.8848 9.00043 12.9375 8.86782 12.9375C8.73521 12.9375 8.60803 12.8848 8.51427 12.791C8.4205 12.6973 8.36782 12.5701 8.36782 12.4375V3.64449L6.22182 5.79149C6.17533 5.83798 6.12014 5.87486 6.0594 5.90002C5.99866 5.92518 5.93356 5.93813 5.86782 5.93813C5.80208 5.93813 5.73698 5.92518 5.67624 5.90002C5.6155 5.87486 5.56031 5.83798 5.51382 5.79149C5.46733 5.74501 5.43045 5.68982 5.4053 5.62908C5.38014 5.56834 5.36719 5.50324 5.36719 5.43749C5.36719 5.37175 5.38014 5.30665 5.4053 5.24591C5.43045 5.18517 5.46733 5.12998 5.51382 5.08349L8.51382 2.08349Z" fill="#3B71ED"/>
</g>
<defs>
<clipPath id="clip0_189_482">
<rect width="16" height="16" fill="white" transform="translate(0.868164 0.9375)"/>
</clipPath>
</defs>
</svg>
