<svg width="14" height="14" viewBox="0 0 14 14" fill="none" xmlns="http://www.w3.org/2000/svg">
<g clip-path="url(#clip0_448_259)">
<path d="M0.4375 8.66211C0.553532 8.66211 0.664812 8.7082 0.746859 8.79025C0.828906 8.8723 0.875 8.98358 0.875 9.09961V11.2871C0.875 11.5192 0.967187 11.7417 1.13128 11.9058C1.29538 12.0699 1.51794 12.1621 1.75 12.1621H12.25C12.4821 12.1621 12.7046 12.0699 12.8687 11.9058C13.0328 11.7417 13.125 11.5192 13.125 11.2871V9.09961C13.125 8.98358 13.1711 8.8723 13.2531 8.79025C13.3352 8.7082 13.4465 8.66211 13.5625 8.66211C13.6785 8.66211 13.7898 8.7082 13.8719 8.79025C13.9539 8.8723 14 8.98358 14 9.09961V11.2871C14 11.7512 13.8156 12.1964 13.4874 12.5245C13.1592 12.8527 12.7141 13.0371 12.25 13.0371H1.75C1.28587 13.0371 0.840752 12.8527 0.512563 12.5245C0.184374 12.1964 0 11.7512 0 11.2871V9.09961C0 8.98358 0.0460936 8.8723 0.128141 8.79025C0.210188 8.7082 0.321468 8.66211 0.4375 8.66211Z" fill="#6857D0"/>
<path d="M6.69031 1.00256C6.73095 0.961813 6.77923 0.929488 6.83239 0.907432C6.88554 0.885376 6.94252 0.874023 7.00006 0.874023C7.05761 0.874023 7.11459 0.885376 7.16774 0.907432C7.2209 0.929488 7.26917 0.961813 7.30981 1.00256L9.93481 3.62756C10.017 3.70971 10.0631 3.82113 10.0631 3.93731C10.0631 4.05348 10.017 4.1649 9.93481 4.24706C9.85266 4.32921 9.74124 4.37536 9.62506 4.37536C9.50889 4.37536 9.39747 4.32921 9.31531 4.24706L7.43756 2.36843V10.0623C7.43756 10.1783 7.39147 10.2896 7.30942 10.3717C7.22738 10.4537 7.1161 10.4998 7.00006 10.4998C6.88403 10.4998 6.77275 10.4537 6.69071 10.3717C6.60866 10.2896 6.56256 10.1783 6.56256 10.0623V2.36843L4.68481 4.24706C4.64414 4.28773 4.59585 4.32 4.5427 4.34201C4.48955 4.36403 4.43259 4.37536 4.37506 4.37536C4.31754 4.37536 4.26058 4.36403 4.20743 4.34201C4.15428 4.32 4.10599 4.28773 4.06531 4.24706C4.02464 4.20638 3.99237 4.15809 3.97036 4.10494C3.94834 4.05179 3.93701 3.99483 3.93701 3.93731C3.93701 3.87978 3.94834 3.82282 3.97036 3.76967C3.99237 3.71652 4.02464 3.66823 4.06531 3.62756L6.69031 1.00256Z" fill="#6857D0"/>
</g>
<defs>
<clipPath id="clip0_448_259">
<rect width="14" height="14" fill="white"/>
</clipPath>
</defs>
</svg>
