<svg width="45" height="45" viewBox="0 0 45 45" fill="none" xmlns="http://www.w3.org/2000/svg">
<g opacity="0.2" filter="url(#filter0_d_968_570)">
<circle cx="22.5" cy="22.5" r="22.5" fill="#43FA3F"/>
</g>
<path d="M23.4163 14.41C21.0566 14.41 19.1383 16.3284 19.1383 18.688C19.1383 21.0026 20.9486 22.8759 23.3082 22.957C23.3802 22.948 23.4523 22.948 23.5063 22.957C23.5244 22.957 23.5334 22.957 23.5514 22.957C23.5604 22.957 23.5604 22.957 23.5694 22.957C25.875 22.8759 27.6852 21.0026 27.6942 18.688C27.6942 16.3284 25.7759 14.41 23.4163 14.41Z" fill="#01FC1A"/>
<path d="M27.9914 25.3526C25.4786 23.6774 21.3808 23.6774 18.85 25.3526C17.7062 26.1181 17.0758 27.1538 17.0758 28.2616C17.0758 29.3694 17.7062 30.3961 18.841 31.1526C20.1019 31.9992 21.7591 32.4225 23.4162 32.4225C25.0734 32.4225 26.7305 31.9992 27.9914 31.1526C29.1262 30.3871 29.7566 29.3603 29.7566 28.2436C29.7476 27.1358 29.1262 26.1091 27.9914 25.3526Z" fill="#01FC1A"/>
<defs>
<filter id="filter0_d_968_570" x="-24.3169" y="0" width="93.6338" height="96.3356" filterUnits="userSpaceOnUse" color-interpolation-filters="sRGB">
<feFlood flood-opacity="0" result="BackgroundImageFix"/>
<feColorMatrix in="SourceAlpha" type="matrix" values="0 0 0 0 0 0 0 0 0 0 0 0 0 0 0 0 0 0 127 0" result="hardAlpha"/>
<feMorphology radius="7.205" operator="erode" in="SourceAlpha" result="effect1_dropShadow_968_570"/>
<feOffset dy="27.0187"/>
<feGaussianBlur stdDeviation="15.7609"/>
<feColorMatrix type="matrix" values="0 0 0 0 0.980392 0 0 0 0 0.701961 0 0 0 0 0.247059 0 0 0 0.15 0"/>
<feBlend mode="normal" in2="BackgroundImageFix" result="effect1_dropShadow_968_570"/>
<feBlend mode="normal" in="SourceGraphic" in2="effect1_dropShadow_968_570" result="shape"/>
</filter>
</defs>
</svg>
