<svg width="51" height="50" viewBox="0 0 51 50" fill="none" xmlns="http://www.w3.org/2000/svg">
<path fill-rule="evenodd" clip-rule="evenodd" d="M25.5 47C37.6509 47 47.5 37.1509 47.5 25C47.5 12.8491 37.6509 3 25.5 3C13.3491 3 3.5 12.8491 3.5 25C3.5 37.1509 13.3491 47 25.5 47ZM25.5 49.75C39.1689 49.75 50.25 38.6689 50.25 25C50.25 11.3311 39.1689 0.25 25.5 0.25C11.8311 0.25 0.75 11.3311 0.75 25C0.75 38.6689 11.8311 49.75 25.5 49.75Z" fill="#030609"/>
<path fill-rule="evenodd" clip-rule="evenodd" d="M15.4542 30.5C17.5923 35.769 21.5317 38.75 25.4985 38.75C29.4668 38.75 33.4048 35.769 35.5429 30.5H15.4542ZM25.4985 41.5C19.9463 41.5 15.1338 37.309 12.7688 31.1875C12.7456 31.1285 12.7227 31.0693 12.7 31.0101C12.0868 29.3725 13.3985 27.75 15.1489 27.75H35.8495C37.5999 27.75 38.913 29.3725 38.297 31.0101C38.2748 31.0693 38.2523 31.1285 38.2297 31.1875C35.8633 37.309 31.0508 41.5 25.4985 41.5Z" fill="#030609"/>
<path d="M21.7903 22.8576C21.9691 22.3654 21.9155 21.7645 21.7683 21.2173C21.5912 20.587 21.3076 19.9918 20.9296 19.4573C20.1307 18.3174 18.8066 17.271 17.0177 17.194C15.1656 17.117 13.7823 18.2926 12.9298 19.5398C12.5204 20.1401 12.1986 20.7956 11.9742 21.4868C11.7776 22.1 11.6731 22.727 11.7418 23.2289C11.7576 23.3433 11.802 23.4519 11.8709 23.5447C11.9397 23.6374 12.0309 23.7113 12.1358 23.7596C12.2408 23.8078 12.3562 23.8288 12.4714 23.8206C12.5867 23.8125 12.698 23.7754 12.7951 23.7129C13.3451 23.3609 13.9212 22.8783 14.4547 22.4328C14.6967 22.2293 14.9318 22.034 15.1491 21.8621C15.9218 21.2516 16.5241 20.9038 17.0218 20.879C17.4962 20.8556 18.0435 21.1265 18.7337 21.6435C18.9812 21.8278 19.2205 22.023 19.468 22.2265L19.7361 22.4451C20.0716 22.716 20.4291 22.9938 20.7893 23.211C20.8762 23.2634 20.9737 23.2959 21.0746 23.3062C21.1756 23.3165 21.2776 23.3044 21.3732 23.2706C21.4689 23.2368 21.556 23.1822 21.6281 23.1109C21.7002 23.0395 21.7556 22.953 21.7903 22.8576ZM29.093 22.8576C28.9142 22.3654 28.9692 21.7645 29.1163 21.2173C29.2703 20.6453 29.555 20.0306 29.9551 19.4573C30.7526 18.3174 32.0781 17.271 33.867 17.194C35.7177 17.117 37.1023 18.2926 37.9548 19.5398C38.3866 20.1723 38.7083 20.857 38.9105 21.4868C39.1057 22.1 39.2102 22.727 39.1415 23.2289C39.1256 23.3431 39.0812 23.4515 39.0124 23.5441C38.9436 23.6366 38.8527 23.7104 38.7479 23.7586C38.6432 23.8068 38.528 23.8279 38.4129 23.8199C38.2979 23.8119 38.1867 23.7751 38.0896 23.7129C37.5396 23.3609 36.9621 22.8783 36.43 22.4328C36.201 22.2395 35.9695 22.0493 35.7356 21.8621C34.9615 21.2516 34.3606 20.9038 33.8615 20.879C33.3885 20.8556 32.8398 21.1265 32.151 21.6435C31.9035 21.8278 31.6642 22.023 31.4167 22.2265L31.1472 22.4451C30.814 22.7236 30.4626 22.9794 30.0953 23.211C30.0084 23.2637 29.9109 23.2964 29.8097 23.3068C29.7086 23.3173 29.6065 23.3052 29.5106 23.2714C29.4147 23.2376 29.3275 23.1829 29.2553 23.1114C29.1831 23.0398 29.1277 22.9532 29.093 22.8576Z" fill="#030609"/>
</svg>
