<svg width="30" height="31" viewBox="0 0 30 31" fill="none" xmlns="http://www.w3.org/2000/svg">
<path d="M14.9115 3.13702C21.7739 3.13702 27.3366 8.69976 27.3366 15.5622C27.3366 22.4246 21.7739 27.9873 14.9115 27.9873C12.7157 27.9909 10.5585 27.4098 8.66164 26.3037L2.49132 27.9873L4.1712 21.8145C3.06423 19.917 2.48268 17.7589 2.48635 15.5622C2.48635 8.69976 8.04909 3.13702 14.9115 3.13702ZM10.677 9.72235L10.4285 9.73229C10.2676 9.74209 10.1104 9.78436 9.96629 9.85654C9.8315 9.93287 9.70846 10.0283 9.60099 10.1398C9.45188 10.2802 9.36739 10.402 9.27669 10.52C8.81711 11.1176 8.56966 11.8512 8.57343 12.605C8.57591 13.2138 8.73495 13.8065 8.98346 14.3607C9.49164 15.4814 10.3279 16.668 11.4312 17.7676C11.6971 18.0323 11.958 18.2982 12.2388 18.5455C13.6098 19.7525 15.2436 20.623 17.0101 21.0876L17.7159 21.1957C17.9457 21.2082 18.1756 21.1908 18.4067 21.1796C18.7686 21.1609 19.1219 21.0629 19.4417 20.8926C19.6044 20.8088 19.7632 20.7175 19.9176 20.6192C19.9176 20.6192 19.971 20.5844 20.0729 20.5074C20.2406 20.3831 20.3438 20.2949 20.4829 20.1495C20.5861 20.0427 20.6755 19.9172 20.7439 19.7743C20.8408 19.5718 20.9377 19.1853 20.9775 18.8635C21.0073 18.6175 20.9986 18.4833 20.9948 18.4001C20.9899 18.2671 20.8793 18.1292 20.7588 18.0708L20.0356 17.7465C20.0356 17.7465 18.9546 17.2756 18.2936 16.9749C18.2245 16.9447 18.1503 16.9274 18.0749 16.924C17.9899 16.9152 17.904 16.9248 17.823 16.952C17.742 16.9792 17.6678 17.0235 17.6053 17.0818C17.5991 17.0793 17.5158 17.1501 16.6175 18.2386C16.5659 18.3078 16.4949 18.3602 16.4135 18.389C16.332 18.4177 16.2439 18.4216 16.1602 18.4001C16.0793 18.3784 16 18.351 15.9229 18.3181C15.7688 18.2535 15.7154 18.2286 15.6098 18.1839C14.8967 17.8727 14.2364 17.4522 13.6528 16.9376C13.4963 16.801 13.3509 16.6519 13.2018 16.5077C12.713 16.0396 12.287 15.51 11.9344 14.9322L11.8611 14.8142C11.8085 14.7349 11.7659 14.6493 11.7344 14.5595C11.6872 14.3768 11.8102 14.2302 11.8102 14.2302C11.8102 14.2302 12.1121 13.8997 12.2525 13.7208C12.3892 13.5468 12.5047 13.3778 12.5793 13.2573C12.7259 13.0212 12.7719 12.7789 12.6948 12.5913C12.3469 11.7414 11.9866 10.8953 11.6163 10.0553C11.543 9.88885 11.3256 9.76957 11.128 9.74596C11.0609 9.73851 10.9938 9.73105 10.9267 9.72608C10.7599 9.71779 10.5927 9.71945 10.426 9.73105L10.6758 9.72111L10.677 9.72235Z" fill="#0E0F0C"/>
</svg>
